<?xml version="1.0" encoding="utf-8"?>
<!-- Generator: Adobe Illustrator 16.0.0, SVG Export Plug-In . SVG Version: 6.00 Build 0)  -->
<!DOCTYPE svg PUBLIC "-//W3C//DTD SVG 1.1//EN" "http://www.w3.org/Graphics/SVG/1.1/DTD/svg11.dtd">
<!--<svg version="1.1" id="vision-2020-svg" xmlns="http://www.w3.org/2000/svg" xmlns:xlink="http://www.w3.org/1999/xlink" x="0px" y="0px"
	 width="512.121px" height="508.104px" viewBox="0 0 512.121 508.104" enable-background="new 0 0 512.121 508.104"
	 xml:space="preserve">-->
<!--<svg version="1.1" id="vision-2020-svg" width="519" height="519" viewBox="9 12 519 519" xml:space="preserve">-->
<svg version="1.1" id="vision-2020-svg" xmlns="http://www.w3.org/2000/svg" xmlns:xlink="http://www.w3.org/1999/xlink" x="0px" y="0px"
	 width="519px" height="519px" viewBox="9 12 519 519" enable-background="new 0 0 519 519"
	 xml:space="preserve">
	<g id="svg-region" transform="scale(.932) translate(32,32)">
	
		<g id="svg-entrepreneurial-approach" class="slice" >
			<g id="svg-bg-entrepreneurial-approach">
				<path fill="#DE8126" d="M255.943,146.103V10.289c-89.611,0-166.182,44.207-210.986,121.813l117.629,67.914
					C181.229,167.796,216.041,146.103,255.943,146.103z"/>
				<path fill="none" stroke="#FFFFFF" stroke-width="2.3" stroke-miterlimit="10" d="M255.943,146.103V10.289
					c-89.611,0-166.182,44.207-210.986,121.813l117.629,67.914C181.229,167.796,216.041,146.103,255.943,146.103z"/>
			</g>
			<g id="svg-text-entrepreneurial-approach">
				<g>
					<path fill="#FFFFFF" d="M134.998,81.956l-6.713,4.944c1.502,2.038,3.537,2.111,6.107,0.218c0.88-0.648,1.689-1.391,2.43-2.229
						l1.049,1.424c-0.74,0.838-1.74,1.721-2.999,2.649c-3.361,2.476-6.294,2.014-8.797-1.385c-2.392-3.247-1.996-6.044,1.188-8.389
						C130.313,76.941,132.892,77.864,134.998,81.956z M127.208,85.438l5.108-3.763c-1.198-1.812-2.633-2.103-4.304-0.872
						C126.304,82.062,126.035,83.606,127.208,85.438z"/>
					<path fill="#FFFFFF" d="M140.214,84.417l-1.027-1.583c1.411-0.354,2.739-0.935,3.985-1.744c1.655-1.075,2.162-2.107,1.52-3.095
						c-0.6-0.923-1.443-1.032-2.531-0.326l-1.681,1.092c-2.176,1.414-3.928,1.098-5.255-0.947c-1.284-1.979-0.486-3.902,2.396-5.773
						c1.24-0.805,2.543-1.417,3.911-1.836l1.028,1.582c-1.411,0.354-2.736,0.933-3.976,1.737c-1.728,1.122-2.271,2.177-1.628,3.167
						c0.599,0.923,1.41,1.053,2.432,0.389l1.682-1.091c2.307-1.499,4.125-1.226,5.452,0.818c1.285,1.978,0.49,3.901-2.386,5.767
						C142.89,83.384,141.582,83.999,140.214,84.417z"/>
					<path fill="#FFFFFF" d="M144.516,68.195c1.276-1.089,2.683-2.056,4.218-2.901c3.479-1.914,6.163-1.154,8.055,2.283
						c2.09,3.794,1.385,6.655-2.114,8.58c-0.867,0.479-1.803,0.769-2.805,0.871l2.445,4.443l-1.911,1.051L144.516,68.195z
						 M150.937,75.335c0.955-0.042,1.895-0.316,2.817-0.824c2.252-1.24,2.633-3.213,1.143-5.919c-1.3-2.362-3.07-2.928-5.308-1.695
						c-0.964,0.531-1.763,1.077-2.395,1.642L150.937,75.335z"/>
					<path fill="#FFFFFF" d="M161.984,72.178l-5.568-11.059l1.316-0.663l1.059,1.236c0.495-1.429,1.423-2.486,2.786-3.172l0.816,1.622
						c-1.32,0.664-2.156,1.67-2.508,3.018l4.047,8.036L161.984,72.178z"/>
					<path fill="#FFFFFF" d="M163.417,52.729l0.748,1.603l-1.978,0.921l-0.747-1.603L163.417,52.729z M165.311,56.79l5.233,11.222
						l-1.978,0.921l-5.232-11.221L165.311,56.79z"/>
					<path fill="#FFFFFF" d="M167.517,53.59l1.257-0.542L170,54.703l2.643-1.139l0.699,1.625l-2.328,1.003l2.813,6.53
						c0.458,1.062,1.144,1.395,2.062,1l0.953-0.41l0.699,1.624l-1.473,0.635c-1.906,0.82-3.299,0.209-4.18-1.834L167.517,53.59z"/>
				</g>
				<g>
					<path fill="#FFFFFF" d="M122.272,125.896c-0.641,1.447-1.699,2.985-3.177,4.617c-2.475,2.733-5.303,2.659-8.484-0.222
						c-2.938-2.659-3.092-5.439-0.465-8.342c0.717-0.792,1.541-1.41,2.471-1.85l-3.759-3.404l1.464-1.617L122.272,125.896z
						 M114.051,121.396c-0.906,0.368-1.738,0.971-2.499,1.811c-1.672,1.847-1.526,3.659,0.438,5.437
						c2.325,2.106,4.324,2.235,5.997,0.388c0.76-0.838,1.321-1.688,1.685-2.547L114.051,121.396z"/>
					<path fill="#FFFFFF" d="M115.577,109.856l2.358,4.887l-1.549,1.537l-2.357-4.887L115.577,109.856z"/>
					<path fill="#FFFFFF" d="M132.962,109.239l-6.213,5.559c1.688,1.886,3.721,1.766,6.1-0.362c0.814-0.729,1.55-1.545,2.207-2.45
						l1.18,1.319c-0.657,0.904-1.568,1.878-2.735,2.92c-3.111,2.784-6.074,2.603-8.888-0.544c-2.688-3.005-2.56-5.827,0.387-8.463
						C127.824,104.692,130.479,105.366,132.962,109.239z M125.539,113.445l4.728-4.23c-1.364-1.69-2.819-1.844-4.366-0.459
						C124.318,110.171,124.197,111.733,125.539,113.445z"/>
					<path fill="#FFFFFF" d="M138.894,111.53l-7.567-9.799l1.166-0.901l1.274,1.013c0.545-1.751,1.417-3.09,2.618-4.018
						c2.259-1.744,4.327-1.399,6.206,1.033l4.749,6.15l-1.727,1.333l-4.771-6.178c-1.125-1.457-2.412-1.625-3.861-0.504
						c-0.99,0.764-1.609,1.903-1.86,3.417l5.499,7.122L138.894,111.53z"/>
					<path fill="#FFFFFF" d="M141.798,91.372l1.128-0.773l1.522,1.388l2.374-1.627l0.999,1.46l-2.091,1.433l4.018,5.865
						c0.653,0.954,1.392,1.148,2.215,0.584l0.856-0.586l1,1.459l-1.323,0.906c-1.712,1.172-3.197,0.841-4.454-0.994L141.798,91.372z"/>
					<path fill="#FFFFFF" d="M156.038,99.13l-6.58-10.488l1.249-0.784l1.169,1.132c0.359-1.469,1.185-2.608,2.477-3.419l0.965,1.538
						c-1.251,0.786-1.989,1.866-2.213,3.24l4.781,7.621L156.038,99.13z"/>
					<path fill="#FFFFFF" d="M168.38,85.475l-7.292,4.042c1.227,2.215,3.236,2.547,6.028,1.001c0.956-0.53,1.854-1.162,2.695-1.899
						l0.857,1.548c-0.841,0.736-1.946,1.482-3.314,2.241c-3.651,2.023-6.5,1.188-8.546-2.504c-1.955-3.527-1.203-6.249,2.256-8.166
						C164.378,79.901,166.817,81.147,168.38,85.475z M160.208,87.928l5.549-3.076c-0.956-1.95-2.341-2.424-4.156-1.417
						C159.744,84.464,159.28,85.961,160.208,87.928z"/>
					<path fill="#FFFFFF" d="M168.621,78.27c1.347-1,2.814-1.87,4.404-2.61c3.599-1.675,6.227-0.734,7.882,2.821
						c1.828,3.927,0.932,6.734-2.689,8.418c-0.897,0.418-1.85,0.645-2.856,0.68l2.14,4.597l-1.978,0.921L168.621,78.27z
						 M174.545,85.826c0.956,0.024,1.912-0.187,2.867-0.631c2.331-1.085,2.844-3.029,1.541-5.829c-1.139-2.445-2.866-3.128-5.182-2.05
						c-0.998,0.464-1.831,0.956-2.5,1.476L174.545,85.826z"/>
					<path fill="#FFFFFF" d="M186.031,83.455l-4.573-11.506l1.37-0.544l0.945,1.325c0.619-1.38,1.637-2.352,3.055-2.916l0.67,1.688
						c-1.373,0.546-2.293,1.475-2.762,2.786l3.322,8.361L186.031,83.455z"/>
					<path fill="#FFFFFF" d="M189.589,64.078l0.594,1.666l-2.055,0.733l-0.594-1.667L189.589,64.078z M191.094,68.298l4.159,11.662
						l-2.055,0.733l-4.159-11.662L191.094,68.298z"/>
					<path fill="#FFFFFF" d="M198.084,78.32l-0.549-1.805c1.453,0.051,2.892-0.14,4.313-0.571c1.887-0.574,2.66-1.425,2.317-2.553
						c-0.32-1.053-1.101-1.392-2.342-1.014l-1.917,0.583c-2.482,0.754-4.077-0.034-4.786-2.366c-0.686-2.256,0.615-3.883,3.902-4.883
						c1.414-0.43,2.836-0.657,4.267-0.681l0.548,1.805c-1.454-0.051-2.887,0.138-4.301,0.568c-1.971,0.599-2.784,1.462-2.441,2.59
						c0.32,1.053,1.063,1.403,2.229,1.049l1.918-0.583c2.633-0.8,4.303-0.035,5.012,2.298c0.686,2.257-0.611,3.882-3.89,4.879
						C200.941,78.069,199.515,78.297,198.084,78.32z"/>
					<path fill="#FFFFFF" d="M218.063,67.854l-8.123,1.879c0.571,2.466,2.411,3.34,5.521,2.62c1.064-0.246,2.102-0.607,3.114-1.083
						l0.398,1.723c-1.011,0.476-2.279,0.89-3.803,1.243c-4.067,0.941-6.576-0.646-7.528-4.758c-0.909-3.93,0.563-6.339,4.416-7.231
						C215.75,61.394,217.752,63.262,218.063,67.854z M209.531,67.962l6.181-1.429c-0.382-2.138-1.583-2.974-3.605-2.506
						C210.039,64.505,209.181,65.817,209.531,67.962z"/>
				</g>
			</g>
		</g>
		<g id="svg-operational-excellence" class="slice">
			<g id="svg-bg-operational-excellence">
				<path fill="#895881" stroke="#FFFFFF" stroke-width="2.3" stroke-miterlimit="10" d="M148.131,253.915
					c0-19.643,5.277-38.04,14.455-53.899L44.957,132.102c-44.805,77.606-44.805,166.02,0,243.629l117.629-67.913
					C153.408,291.956,148.131,273.556,148.131,253.915z"/>
			</g>
			<g id="svg-text-operational-excellence">
				<g>
					<path fill="#FFFFFF" d="M78.041,325.712c-3.901,1.348-6.493,0.165-7.777-3.551c-1.284-3.715,0.024-6.247,3.926-7.595
						c3.893-1.345,6.482-0.16,7.766,3.555C83.234,321.821,81.93,324.352,78.041,325.712z M80.295,318.695
						c-0.809-2.34-2.622-3.024-5.438-2.051c-2.756,0.952-3.73,2.6-2.922,4.939c0.809,2.341,2.592,3.034,5.348,2.082
						C80.1,322.692,81.104,321.035,80.295,318.695z"/>
					<path fill="#FFFFFF" d="M67.883,313.27c-0.747-1.502-1.344-3.1-1.793-4.795c-1.015-3.838,0.374-6.259,4.166-7.262
						c4.188-1.108,6.792,0.269,7.813,4.129c0.253,0.958,0.309,1.936,0.166,2.933l4.902-1.297l0.558,2.109L67.883,313.27z
						 M76.365,308.77c0.191-0.937,0.152-1.915-0.117-2.933c-0.657-2.485-2.479-3.333-5.466-2.542c-2.607,0.688-3.583,2.269-2.93,4.739
						c0.281,1.064,0.619,1.971,1.012,2.721L76.365,308.77z"/>
					<path fill="#FFFFFF" d="M57.241,293.3l1.738-0.328l2.613,4.307l-1.738,0.328L57.241,293.3z M68.72,288.444l1.546,8.192
						c2.488-0.47,3.436-2.272,2.843-5.409c-0.203-1.074-0.521-2.126-0.956-3.156l1.738-0.328c0.435,1.03,0.796,2.313,1.086,3.851
						c0.775,4.102-0.912,6.544-5.061,7.328c-3.963,0.748-6.311-0.821-7.044-4.706C62.17,290.493,64.12,288.569,68.72,288.444z
						 M68.482,296.974l-1.177-6.234c-2.152,0.294-3.036,1.461-2.651,3.501C65.048,296.326,66.325,297.237,68.482,296.974z"/>
					<path fill="#FFFFFF" d="M73.794,284.445l-12.276,1.615l-0.192-1.461l1.516-0.592c-1.186-0.938-1.879-2.164-2.078-3.675l1.8-0.238
						c0.193,1.466,0.868,2.586,2.024,3.362l8.92-1.174L73.794,284.445z"/>
					<path fill="#FFFFFF" d="M69.019,277.819c-2.532,0.19-3.924-1.384-4.175-4.724c-0.093-1.231-0.096-2.31-0.008-3.239l-1.164,0.087
						c-1.341,0.102-1.927,1.261-1.76,3.479c0.095,1.27,0.39,2.557,0.882,3.86l-1.764,0.133c-0.492-1.304-0.787-2.59-0.882-3.86
						c-0.277-3.668,0.902-5.603,3.537-5.801l8.396-0.632l0.083,1.105l-0.804,0.936c0.661,1.031,1.046,2.271,1.155,3.72
						C72.748,275.981,71.582,277.625,69.019,277.819z M66.607,272.962c0.142,1.89,0.88,2.784,2.212,2.684
						c1.411-0.106,2.055-0.982,1.931-2.629c-0.114-1.505-0.525-2.675-1.234-3.513l-2.916,0.22
						C66.508,270.597,66.51,271.677,66.607,272.962z"/>
					<path fill="#FFFFFF" d="M57.623,264.268l-0.028-1.368l1.995-0.513l-0.06-2.877l1.768-0.037l0.052,2.535l7.109-0.147
						c1.155-0.023,1.723-0.535,1.702-1.533l-0.021-1.038l1.769-0.037l0.033,1.604c0.043,2.075-1.047,3.135-3.272,3.182L57.623,264.268z
						"/>
					<path fill="#FFFFFF" d="M55.108,254.206l1.768,0.048l-0.06,2.18l-1.768-0.048L55.108,254.206z M59.588,254.329l12.376,0.338
						l-0.059,2.181l-12.377-0.339L59.588,254.329z"/>
					<path fill="#FFFFFF" d="M65.752,251.498c-4.119-0.264-6.052-2.358-5.801-6.28c0.251-3.923,2.436-5.752,6.555-5.488
						c4.111,0.264,6.041,2.357,5.789,6.28C72.045,249.916,69.864,251.746,65.752,251.498z M70.542,245.897
						c0.158-2.472-1.249-3.803-4.222-3.994c-2.911-0.187-4.445,0.956-4.604,3.427c-0.159,2.471,1.217,3.8,4.128,3.986
						C68.818,249.508,70.384,248.368,70.542,245.897z"/>
					<path fill="#FFFFFF" d="M72.947,237.731l-12.265-1.699l0.203-1.459l1.619-0.168c-0.837-1.632-1.152-3.2-0.944-4.702
						c0.392-2.827,2.11-4.03,5.155-3.608l7.697,1.066l-0.299,2.161l-7.733-1.071c-1.822-0.252-2.859,0.528-3.11,2.343
						c-0.171,1.238,0.183,2.486,1.065,3.743l8.912,1.235L72.947,237.731z"/>
					<path fill="#FFFFFF" d="M71.572,213.327l-1.737,8.154c2.476,0.528,4.047-0.77,4.711-3.891c0.228-1.069,0.34-2.163,0.337-3.28
						l1.73,0.368c0.003,1.118-0.158,2.442-0.484,3.972c-0.869,4.083-3.369,5.685-7.498,4.805c-3.944-0.84-5.505-3.193-4.681-7.061
						C64.739,212.688,67.28,211.666,71.572,213.327z M68.059,221.103l1.321-6.206c-2.099-0.56-3.365,0.176-3.797,2.206
						C65.141,219.18,65.966,220.513,68.059,221.103z"/>
					<path fill="#FFFFFF" d="M62.09,205.087l16.295,4.335l-0.561,2.108l-16.295-4.336L62.09,205.087z"/>
					<path fill="#FFFFFF" d="M63.749,199.329l16.158,4.823l-0.625,2.091l-16.158-4.824L63.749,199.329z"/>
					<path fill="#FFFFFF" d="M78.867,189.887l-2.783,7.86c2.386,0.844,4.112-0.237,5.177-3.246c0.365-1.03,0.618-2.1,0.761-3.208
						l1.667,0.591c-0.143,1.109-0.475,2.4-0.997,3.875c-1.393,3.935-4.08,5.197-8.059,3.788c-3.802-1.346-5.042-3.883-3.723-7.61
						C72.176,188.365,74.828,187.682,78.867,189.887z M74.372,197.141l2.118-5.981c-2.009-0.828-3.359-0.263-4.052,1.693
						C71.729,194.854,72.374,196.283,74.372,197.141z"/>
				</g>
				<g>
					<path fill="#FFFFFF" d="M50.44,297.756l1.921,8.113c2.463-0.583,3.328-2.428,2.592-5.533c-0.252-1.064-0.618-2.1-1.099-3.109
						l1.721-0.407c0.481,1.009,0.902,2.275,1.263,3.797c0.962,4.062-0.611,6.58-4.72,7.552c-3.924,0.929-6.342-0.53-7.253-4.378
						C43.992,300.103,45.85,298.091,50.44,297.756z M50.594,306.287l-1.461-6.173c-2.137,0.393-2.966,1.599-2.488,3.618
						C47.134,305.797,48.45,306.649,50.594,306.287z"/>
					<path fill="#FFFFFF" d="M55.144,292.79l0.431,2.499L41.8,288.27l-0.431-2.499L55.144,292.79z M43.373,297.392l-0.431-2.499
						l10.628-11.226l0.431,2.499L43.373,297.392z"/>
					<path fill="#FFFFFF" d="M51.89,272.182c0.349,0.99,0.589,2.07,0.722,3.242c0.502,4.453-1.375,6.919-5.632,7.4
						c-3.945,0.445-6.169-1.559-6.671-6.012c-0.132-1.171-0.138-2.278-0.019-3.32l1.758-0.198c-0.12,1.042-0.123,2.071-0.008,3.086
						c0.357,3.164,1.922,4.589,4.696,4.276c3.086-0.348,4.45-2.104,4.092-5.267c-0.115-1.016-0.346-2.019-0.695-3.007L51.89,272.182z"
						/>
					<path fill="#FFFFFF" d="M45.996,260.63l0.451,8.325c2.528-0.137,3.706-1.799,3.532-4.986c-0.059-1.091-0.235-2.176-0.53-3.254
						l1.766-0.096c0.294,1.079,0.484,2.399,0.569,3.961c0.226,4.168-1.769,6.367-5.984,6.595c-4.027,0.218-6.147-1.646-6.362-5.595
						C39.233,261.796,41.419,260.146,45.996,260.63z M44.634,269.054l-0.344-6.335c-2.172,0.008-3.202,1.047-3.09,3.121
						C41.315,267.958,42.459,269.03,44.634,269.054z"/>
					<path fill="#FFFFFF" d="M34.66,255.558l16.861-0.19l0.024,2.181l-16.861,0.19L34.66,255.558z"/>
					<path fill="#FFFFFF" d="M34.712,249.847l16.856,0.464l-0.06,2.18l-16.856-0.463L34.712,249.847z"/>
					<path fill="#FFFFFF" d="M46.569,237.146l-0.466,8.325c2.528,0.141,3.881-1.381,4.059-4.568c0.061-1.091,0.004-2.188-0.17-3.293
						l1.766,0.099c0.175,1.105,0.218,2.438,0.131,4c-0.234,4.168-2.458,6.134-6.672,5.898c-4.026-0.225-5.93-2.313-5.708-6.26
						C39.719,237.562,42.073,236.163,46.569,237.146z M44.29,245.369l0.355-6.334c-2.161-0.231-3.298,0.689-3.415,2.762
						C41.112,243.916,42.132,245.106,44.29,245.369z"/>
					<path fill="#FFFFFF" d="M52.35,234.795l-12.294-1.471l0.175-1.464l1.615-0.199c-0.868-1.616-1.211-3.177-1.031-4.684
						c0.339-2.833,2.035-4.067,5.086-3.703l7.716,0.924l-0.259,2.166l-7.751-0.927c-1.826-0.218-2.848,0.582-3.066,2.4
						c-0.148,1.241,0.23,2.482,1.134,3.723l8.934,1.069L52.35,234.795z"/>
					<path fill="#FFFFFF" d="M55.407,212.082c0.049,1.047-0.032,2.152-0.243,3.312c-0.801,4.409-3.31,6.229-7.525,5.464
						c-3.906-0.71-5.458-3.269-4.657-7.678c0.21-1.16,0.523-2.222,0.938-3.185l1.74,0.316c-0.415,0.963-0.713,1.948-0.896,2.953
						c-0.569,3.133,0.519,4.949,3.265,5.448c3.056,0.555,4.868-0.733,5.437-3.866c0.183-1.005,0.25-2.032,0.2-3.08L55.407,212.082z"/>
					<path fill="#FFFFFF" d="M53.104,199.29l-1.971,8.101c2.459,0.599,4.066-0.652,4.821-3.754c0.258-1.061,0.402-2.151,0.432-3.268
						l1.718,0.418c-0.029,1.118-0.229,2.437-0.599,3.957c-0.987,4.056-3.532,5.584-7.633,4.586c-3.919-0.954-5.411-3.352-4.476-7.193
						C46.292,198.454,48.862,197.505,53.104,199.29z M49.368,206.961l1.5-6.164c-2.082-0.62-3.369,0.078-3.859,2.095
						C46.507,204.954,47.293,206.311,49.368,206.961z"/>
				</g>
			</g>
		</g>
		<g id="svg-robust-portfolio" class="slice">
			<g id="svg-bg-robust-portfolio">
				<path fill="#9F2214" stroke="#FFFFFF" stroke-width="2.3" stroke-miterlimit="10" d="M162.586,307.817L44.957,375.73
					c44.805,77.604,121.375,121.813,210.986,121.813V361.729C216.041,361.729,181.229,340.035,162.586,307.817z"/>
			</g>
			<g id="svg-text-robust-portfolio">
				<g>
					<path fill="#FFFFFF" d="M111.712,419.435l8.142-9.329l1.11,0.969l-0.746,1.446c1.51-0.08,2.839,0.381,3.988,1.384l-1.194,1.368
						c-1.113-0.972-2.36-1.366-3.74-1.184l-5.916,6.779L111.712,419.435z"/>
					<path fill="#FFFFFF" d="M121.167,419.501c2.549-3.246,5.37-3.654,8.46-1.226c3.092,2.429,3.361,5.265,0.812,8.511
						c-2.545,3.239-5.363,3.644-8.454,1.216C118.907,425.583,118.634,422.75,121.167,419.501z M123.071,426.621
						c1.946,1.53,3.84,1.123,5.681-1.219c1.802-2.294,1.729-4.205-0.218-5.735c-1.947-1.53-3.822-1.148-5.624,1.145
						C121.07,423.155,121.124,425.091,123.071,426.621z"/>
					<path fill="#FFFFFF" d="M138.771,419.642l1.801,1.232l-2.862,4.186c0.994,0.203,1.932,0.607,2.813,1.21
						c3.232,2.211,3.73,4.951,1.493,8.222c-2.424,3.542-5.333,4.153-8.726,1.832c-1.466-1.002-2.718-2.063-3.753-3.182L138.771,419.642
						z M132.269,433.011c0.463,0.592,1.115,1.176,1.959,1.753c2.271,1.553,4.292,1.036,6.063-1.554c1.496-2.187,1.215-3.983-0.842-5.39
						c-0.934-0.639-1.878-1.028-2.831-1.166L132.269,433.011z"/>
					<path fill="#FFFFFF" d="M156.627,436.312l-6.29,10.665l-1.29-0.761l0.478-1.553c-1.828,0.146-3.396-0.168-4.703-0.939
						c-2.451-1.445-2.896-3.492-1.335-6.14l3.947-6.694l1.88,1.108l-3.965,6.724c-0.936,1.584-0.617,2.84,0.953,3.766
						c1.077,0.635,2.369,0.79,3.875,0.464l4.57-7.75L156.627,436.312z"/>
					<path fill="#FFFFFF" d="M153.912,448.25l0.857-1.681c1.011,1.047,2.178,1.908,3.5,2.584c1.757,0.898,2.904,0.822,3.441-0.228
						c0.501-0.98,0.174-1.765-0.981-2.356l-1.785-0.912c-2.309-1.181-2.91-2.856-1.801-5.026c1.074-2.1,3.14-2.368,6.199-0.804
						c1.317,0.673,2.497,1.498,3.542,2.474l-0.858,1.68c-1.011-1.047-2.174-1.906-3.49-2.579c-1.834-0.938-3.019-0.881-3.556,0.168
						c-0.5,0.98-0.209,1.748,0.876,2.302l1.785,0.913c2.45,1.252,3.121,2.963,2.012,5.133c-1.074,2.1-3.137,2.37-6.188,0.81
						C156.142,450.052,154.958,449.226,153.912,448.25z"/>
					<path fill="#FFFFFF" d="M170.739,441.22l1.246,0.565l-0.398,2.02l2.62,1.189l-0.731,1.61l-2.309-1.048l-2.939,6.475
						c-0.478,1.052-0.262,1.784,0.647,2.197l0.944,0.429l-0.731,1.611l-1.46-0.664c-1.89-0.857-2.375-2.299-1.455-4.325L170.739,441.22
						z"/>
					<path fill="#FFFFFF" d="M183.155,455.995l-7.751-3.07c-0.932,2.354,0.086,4.118,3.053,5.293c1.016,0.402,2.075,0.695,3.178,0.878
						l-0.651,1.644c-1.103-0.183-2.381-0.563-3.835-1.139c-3.881-1.538-5.044-4.268-3.491-8.193c1.485-3.75,4.066-4.896,7.743-3.44
						C184.923,449.364,185.507,452.04,183.155,455.995z M176.072,451.236l5.898,2.336c0.901-1.978,0.387-3.347-1.542-4.112
						C178.455,448.68,177.003,449.272,176.072,451.236z"/>
				</g>
				<g>
					<path fill="#FFFFFF" d="M121.061,379.394c1.392,0.936,2.701,2.03,3.928,3.281c2.781,2.834,2.771,5.625-0.03,8.372
						c-3.093,3.033-6.037,3.124-8.833,0.273c-0.693-0.707-1.225-1.529-1.594-2.467l-3.62,3.55l-1.527-1.558L121.061,379.394z
						 M115.914,387.5c0.296,0.909,0.814,1.739,1.552,2.491c1.799,1.835,3.803,1.671,6.008-0.492c1.924-1.888,1.993-3.745,0.203-5.568
						c-0.77-0.786-1.512-1.408-2.225-1.865L115.914,387.5z"/>
					<path fill="#FFFFFF" d="M126.369,392.817c2.748-3.08,5.586-3.313,8.521-0.696c2.933,2.616,3.026,5.464,0.28,8.544
						c-2.741,3.074-5.579,3.303-8.513,0.687C123.734,398.747,123.639,395.902,126.369,392.817z M127.826,400.042
						c1.848,1.648,3.763,1.36,5.747-0.864c1.942-2.176,1.988-4.088,0.14-5.737c-1.849-1.647-3.743-1.383-5.684,0.793
						C126.045,396.458,125.978,398.394,127.826,400.042z"/>
					<path fill="#FFFFFF" d="M133.467,407.208l7.751-9.655l1.149,0.922l-0.686,1.477c1.505-0.143,2.852,0.263,4.042,1.219l-1.137,1.416
						c-1.152-0.925-2.415-1.269-3.786-1.029l-5.633,7.016L133.467,407.208z"/>
					<path fill="#FFFFFF" d="M148.26,400.564l1.097,0.818l-0.82,1.889l2.307,1.721l-1.058,1.418l-2.032-1.516l-4.251,5.7
						c-0.691,0.926-0.637,1.688,0.164,2.285l0.832,0.62l-1.057,1.418l-1.286-0.959c-1.663-1.24-1.831-2.752-0.5-4.536L148.26,400.564z"
						/>
					<path fill="#FFFFFF" d="M157.246,417.651l-6.917-4.654c-1.414,2.101-0.795,4.042,1.853,5.823c0.906,0.609,1.878,1.122,2.917,1.536
						l-0.987,1.468c-1.038-0.415-2.206-1.058-3.504-1.932c-3.464-2.33-4.018-5.246-1.661-8.749c2.251-3.346,5.017-3.916,8.298-1.708
						C160.389,411.551,160.389,414.289,157.246,417.651z M151.342,411.491l5.264,3.541c1.303-1.739,1.093-3.188-0.629-4.346
						C154.215,409.501,152.671,409.77,151.342,411.491z"/>
					<path fill="#FFFFFF" d="M157.19,424.23l6.625-11.234c1.521-2.58,3.609-3.087,6.264-1.521c0.874,0.516,1.585,1.118,2.137,1.808
						l-0.898,1.524c-0.51-0.666-1.227-1.271-2.147-1.814c-1.396-0.823-2.438-0.648-3.129,0.522l-0.653,1.108l3.199,1.887l-0.898,1.523
						l-3.2-1.887l-5.396,9.152L157.19,424.23z"/>
					<path fill="#FFFFFF" d="M175.929,428.313l-7.349-3.937c-1.195,2.231-0.387,4.101,2.427,5.607c0.962,0.516,1.982,0.928,3.057,1.236
						l-0.834,1.56c-1.076-0.308-2.302-0.831-3.681-1.57c-3.68-1.971-4.522-4.817-2.53-8.539c1.905-3.554,4.6-4.398,8.085-2.532
						C178.444,421.928,178.719,424.653,175.929,428.313z M169.438,422.775l5.593,2.996c1.121-1.861,0.767-3.281-1.063-4.261
						C172.097,420.508,170.587,420.93,169.438,422.775z"/>
					<path fill="#FFFFFF" d="M191.463,428.026l-5.129,11.269l-1.364-0.621l0.311-1.594c-1.803,0.336-3.396,0.19-4.775-0.438
						c-2.59-1.179-3.249-3.167-1.975-5.964l3.219-7.073l1.985,0.903l-3.233,7.105c-0.763,1.674-0.313,2.889,1.347,3.645
						c1.138,0.517,2.438,0.535,3.901,0.052l3.728-8.189L191.463,428.026z"/>
					<path fill="#FFFFFF" d="M196.32,429.94l-4.601,11.495l-2.025-0.811l4.601-11.495L196.32,429.94z M197.984,425.78l-0.657,1.642
						l-2.026-0.81l0.658-1.642L197.984,425.78z"/>
					<path fill="#FFFFFF" d="M202.761,427.59l-5.863,15.811l-2.044-0.758l5.861-15.811L202.761,427.59z"/>
					<path fill="#FFFFFF" d="M207.561,429.271l-5.455,15.956l-2.063-0.706l5.454-15.956L207.561,429.271z"/>
					<path fill="#FFFFFF" d="M216.61,443.846l-8.001-2.343c-0.712,2.43,0.465,4.093,3.528,4.989c1.049,0.307,2.131,0.501,3.245,0.582
						l-0.496,1.698c-1.116-0.081-2.424-0.341-3.925-0.78c-4.006-1.173-5.417-3.785-4.23-7.836c1.132-3.871,3.596-5.25,7.391-4.14
						C217.759,437.081,218.588,439.69,216.61,443.846z M209.119,439.761l6.088,1.782c0.715-2.051,0.077-3.369-1.914-3.951
						C211.256,436.996,209.865,437.719,209.119,439.761z"/>
				</g>
			</g>
		</g>
		<g id="svg-top-quartile-shareholder-returns" class="slice">
			<g id="svg-bg-shareholder-returns">
				<path fill="#67923D" stroke="#FFFFFF" stroke-width="2.3" stroke-miterlimit="10" d="M255.943,361.729v135.814
					c89.609,0,166.23-44.208,211.035-121.813l-117.68-67.913C330.66,340.035,295.846,361.729,255.943,361.729z"/>
			</g>
			<g id="svg-text-top-quartile-shareholder-returns">
				<g>
					<path fill="#FFFFFF" d="M293.466,440.511c-0.582-2.238,0.603-3.741,3.556-4.509c1.088-0.283,2.056-0.459,2.903-0.532l-0.267-1.03
						c-0.309-1.185-1.443-1.522-3.405-1.013c-1.123,0.292-2.229,0.764-3.317,1.417l-0.405-1.56c1.088-0.652,2.193-1.125,3.316-1.417
						c3.244-0.842,5.169-0.1,5.774,2.229l1.929,7.424l-0.978,0.253l-0.969-0.569c-0.816,0.76-1.866,1.306-3.148,1.639
						C295.719,443.556,294.056,442.778,293.466,440.511z M297.428,437.562c-1.671,0.434-2.353,1.24-2.046,2.418
						c0.324,1.248,1.214,1.683,2.669,1.304c1.331-0.345,2.314-0.904,2.95-1.677l-0.67-2.579
						C299.532,437.088,298.564,437.266,297.428,437.562z"/>
					<path fill="#FFFFFF" d="M314.771,437.619c-0.819,0.491-1.74,0.903-2.761,1.236c-3.882,1.26-6.426,0.036-7.632-3.675
						c-1.118-3.439,0.264-5.791,4.146-7.052c1.021-0.332,2.008-0.541,2.959-0.623l0.498,1.532c-0.951,0.084-1.87,0.269-2.756,0.557
						c-2.758,0.896-3.744,2.554-2.958,4.972c0.875,2.69,2.691,3.587,5.449,2.69c0.886-0.288,1.738-0.678,2.557-1.17L314.771,437.619z"
						/>
					<path fill="#FFFFFF" d="M312.544,424.786l1.167-0.439l1.046,1.557l2.453-0.924l0.569,1.507l-2.161,0.815l2.285,6.06
						c0.371,0.986,0.982,1.318,1.833,0.998l0.884-0.334l0.569,1.507l-1.367,0.516c-1.77,0.667-3.012,0.052-3.727-1.844L312.544,424.786
						z"/>
					<path fill="#FFFFFF" d="M319.682,419.556l0.616,1.489l-1.837,0.76l-0.616-1.489L319.682,419.556z M321.241,423.328l4.309,10.425
						l-1.837,0.759l-4.309-10.424L321.241,423.328z"/>
					<path fill="#FFFFFF" d="M325.684,427.644c-1.595-3.405-0.772-5.868,2.471-7.386c3.242-1.519,5.661-0.577,7.256,2.828
						c1.593,3.398,0.767,5.857-2.475,7.376C329.706,431.975,327.289,431.035,325.684,427.644z M332.257,429.012
						c2.043-0.957,2.488-2.664,1.337-5.122c-1.127-2.406-2.712-3.129-4.755-2.173c-2.043,0.956-2.5,2.639-1.374,5.044
						C328.617,429.22,330.214,429.969,332.257,429.012z"/>
					<path fill="#FFFFFF" d="M340.269,426.919l-5.445-9.878l1.176-0.649l1.006,1.09c0.734-1.5,1.707-2.584,2.917-3.252
						c2.277-1.255,4.091-0.656,5.443,1.796l3.417,6.199l-1.74,0.96l-3.433-6.228c-0.809-1.468-1.944-1.799-3.405-0.993
						c-0.998,0.549-1.715,1.489-2.152,2.816l3.957,7.179L340.269,426.919z"/>
					<path fill="#FFFFFF" d="M351.569,420.57l-6.074-9.505l1.131-0.723l1.074,1.021c0.636-1.545,1.536-2.689,2.701-3.434
						c2.19-1.399,4.04-0.92,5.547,1.439l3.813,5.965l-1.675,1.071l-3.829-5.993c-0.903-1.412-2.057-1.668-3.463-0.77
						c-0.959,0.613-1.614,1.597-1.964,2.951l4.414,6.906L351.569,420.57z"/>
					<path fill="#FFFFFF" d="M359.939,410.964c-1.368-1.866-0.821-3.701,1.64-5.505c0.907-0.664,1.74-1.186,2.501-1.566l-0.629-0.858
						c-0.724-0.988-1.903-0.882-3.538,0.315c-0.936,0.687-1.789,1.533-2.559,2.542l-0.952-1.3c0.77-1.008,1.623-1.855,2.559-2.542
						c2.703-1.981,4.766-2.001,6.188-0.06l4.534,6.186l-0.814,0.597l-1.111-0.171c-0.478,1.007-1.251,1.903-2.319,2.686
						C363.156,412.961,361.324,412.853,359.939,410.964z M362.532,406.76c-1.392,1.021-1.729,2.021-1.008,3.003
						c0.762,1.04,1.749,1.115,2.963,0.226c1.108-0.813,1.815-1.695,2.121-2.647l-1.575-2.149
						C364.313,405.543,363.479,406.066,362.532,406.76z"/>
					<path fill="#FFFFFF" d="M364.169,392.895l1.01,1.256l-1.55,1.245l-1.009-1.255L364.169,392.895z M366.726,396.075l7.068,8.791
						l-1.548,1.246l-7.068-8.791L366.726,396.075z"/>
					<path fill="#FFFFFF" d="M376.302,402.804l-7.346-8.56l1.019-0.874l1.206,0.86c0.125-1.371,0.715-2.509,1.77-3.415l1.077,1.256
						c-1.021,0.877-1.54,1.949-1.556,3.217l5.338,6.221L376.302,402.804z"/>
					<path fill="#FFFFFF" d="M384.902,388.127l-5.509,5.228c1.587,1.673,3.436,1.509,5.545-0.493c0.722-0.686,1.37-1.448,1.944-2.29
						l1.109,1.169c-0.575,0.84-1.378,1.752-2.413,2.732c-2.758,2.618-5.46,2.532-8.108-0.258c-2.529-2.665-2.487-5.236,0.126-7.716
						C380.101,384.124,382.536,384.667,384.902,388.127z M378.255,392.156l4.192-3.979c-1.288-1.502-2.618-1.604-3.989-0.301
						C377.056,389.206,376.987,390.633,378.255,392.156z"/>
					<path fill="#FFFFFF" d="M390.216,389.181l-1.256-1.172c1.169-0.623,2.216-1.428,3.139-2.418c1.227-1.314,1.447-2.337,0.662-3.071
						c-0.732-0.684-1.503-0.594-2.309,0.27l-1.246,1.335c-1.613,1.727-3.23,1.834-4.854,0.318c-1.57-1.466-1.288-3.342,0.848-5.629
						c0.918-0.984,1.936-1.813,3.053-2.483l1.257,1.172c-1.17,0.623-2.214,1.427-3.133,2.411c-1.28,1.371-1.528,2.423-0.743,3.156
						c0.734,0.685,1.478,0.621,2.236-0.19l1.247-1.335c1.71-1.832,3.377-1.99,5-0.476c1.57,1.466,1.291,3.34-0.84,5.623
						C392.354,387.679,391.333,388.51,390.216,389.181z"/>
				</g>
				<g>
					<path fill="#FFFFFF" d="M287.559,457.397c1.419-0.566,2.915-0.99,4.487-1.27c3.56-0.636,5.654,0.806,6.282,4.324
						c0.693,3.884-0.751,6.146-4.332,6.786c-0.889,0.159-1.78,0.136-2.675-0.068l0.812,4.547l-1.957,0.349L287.559,457.397z
						 M291.011,465.434c0.836,0.244,1.727,0.281,2.672,0.113c2.305-0.413,3.21-2.004,2.716-4.774c-0.432-2.418-1.793-3.423-4.085-3.014
						c-0.987,0.175-1.835,0.416-2.545,0.716L291.011,465.434z"/>
					<path fill="#FFFFFF" d="M302.615,465.531l-2.529-10.992l1.309-0.301l0.668,1.323c0.748-1.156,1.799-1.891,3.153-2.202l0.371,1.613
						c-1.313,0.301-2.271,1.01-2.873,2.126l1.838,7.987L302.615,465.531z"/>
					<path fill="#FFFFFF" d="M317.577,456.416l-7.312,2.054c0.624,2.22,2.335,2.938,5.135,2.151c0.958-0.27,1.887-0.643,2.787-1.118
						l0.436,1.55c-0.9,0.477-2.036,0.907-3.408,1.293c-3.661,1.029-6.012-0.308-7.052-4.01c-0.994-3.537,0.242-5.793,3.711-6.767
						C315.198,450.635,317.099,452.251,317.577,456.416z M309.818,456.878l5.563-1.563c-0.438-1.93-1.567-2.639-3.387-2.127
						C310.133,453.71,309.408,454.94,309.818,456.878z"/>
					<path fill="#FFFFFF" d="M323.163,460.076l-3.899-10.584l1.26-0.465l0.802,1.216c0.89-1.335,1.932-2.223,3.128-2.665
						c1.331-0.49,2.453-0.354,3.367,0.408c0.995-1.465,2.083-2.415,3.266-2.851c2.231-0.821,3.84,0.108,4.828,2.79l2.418,6.561
						l-1.865,0.687l-2.454-6.662c-0.582-1.579-1.539-2.124-2.869-1.633c-0.994,0.365-1.757,1.166-2.287,2.399l2.822,7.66l-1.864,0.688
						l-2.444-6.634c-0.589-1.599-1.542-2.156-2.86-1.671c-1.048,0.386-1.817,1.189-2.307,2.408l2.822,7.66L323.163,460.076z"/>
					<path fill="#FFFFFF" d="M337.697,437.888l0.648,1.476l-1.819,0.799l-0.648-1.476L337.697,437.888z M339.339,441.625l4.535,10.328
						l-1.819,0.799l-4.535-10.327L339.339,441.625z"/>
					<path fill="#FFFFFF" d="M353.152,441.925l-6.819,3.343c1.015,2.07,2.828,2.466,5.439,1.186c0.894-0.438,1.74-0.973,2.54-1.604
						l0.709,1.447c-0.799,0.632-1.839,1.261-3.118,1.888c-3.414,1.674-5.968,0.785-7.661-2.669c-1.617-3.298-0.809-5.741,2.426-7.326
						C349.766,436.669,351.928,437.915,353.152,441.925z M345.604,443.782l5.189-2.544c-0.78-1.818-2.019-2.312-3.716-1.479
						C345.341,440.61,344.85,441.95,345.604,443.782z"/>
					<path fill="#FFFFFF" d="M358.618,444.729l-5.434-9.884l1.177-0.646l1.004,1.09c0.404-1.316,1.214-2.311,2.432-2.979l0.797,1.45
						c-1.18,0.648-1.908,1.592-2.184,2.83l3.949,7.183L358.618,444.729z"/>
					<path fill="#FFFFFF" d="M380.228,436.453l-1.668,1.081l-2.511-3.878c-0.515,0.761-1.181,1.405-1.998,1.935
						c-2.994,1.938-5.524,1.313-7.591-1.879c-2.021-3.119-1.453-5.702,1.702-7.746c1.28-0.829,2.603-1.501,3.966-2.019L380.228,436.453
						z M371.248,426.245c-0.665,0.226-1.417,0.611-2.259,1.156c-2.014,1.305-2.313,3.047-0.9,5.229
						c1.452,2.242,3.131,2.746,5.037,1.512c0.866-0.561,1.521-1.215,1.965-1.964L371.248,426.245z"/>
					<path fill="#FFFFFF" d="M382.504,415.818l6.717,9.062l-1.097,0.812l-1.132-0.951c-0.528,1.585-1.347,2.79-2.457,3.613
						c-2.083,1.543-3.957,1.191-5.625-1.058l-4.216-5.688l1.597-1.183l4.234,5.713c0.998,1.346,2.165,1.525,3.499,0.536
						c0.915-0.678,1.503-1.707,1.764-3.087l-4.881-6.585L382.504,415.818z"/>
					<path fill="#FFFFFF" d="M389.788,419.963c-1.49-1.769-1.07-3.638,1.264-5.603c0.859-0.723,1.656-1.301,2.389-1.732l-0.686-0.813
						c-0.789-0.936-1.958-0.751-3.508,0.555c-0.887,0.747-1.681,1.65-2.381,2.708l-1.039-1.232c0.7-1.058,1.495-1.961,2.382-2.709
						c2.563-2.159,4.619-2.32,6.17-0.479l4.942,5.865l-0.772,0.65l-1.12-0.096c-0.409,1.038-1.12,1.983-2.133,2.837
						C393.133,421.737,391.297,421.753,389.788,419.963z M392.09,415.593c-1.32,1.112-1.587,2.134-0.803,3.064
						c0.831,0.985,1.821,0.994,2.971,0.025c1.052-0.886,1.697-1.814,1.938-2.785l-1.717-2.038
						C393.784,414.258,392.988,414.835,392.09,415.593z"/>
					<path fill="#FFFFFF" d="M402.14,413.952l-7.673-8.268l0.984-0.914l1.238,0.814c0.071-1.375,0.617-2.535,1.636-3.481l1.125,1.213
						c-0.987,0.916-1.463,2.007-1.43,3.276l5.575,6.008L402.14,413.952z"/>
					<path fill="#FFFFFF" d="M398.395,399.471l0.884-0.878l1.592,0.992l1.858-1.849l1.136,1.143l-1.638,1.629l4.567,4.593
						c0.742,0.747,1.436,0.8,2.081,0.158l0.671-0.666l1.136,1.143l-1.036,1.029c-1.341,1.333-2.725,1.283-4.154-0.155L398.395,399.471z
						"/>
					<path fill="#FFFFFF" d="M402.899,391.649l1.17,1.109l-1.368,1.441l-1.169-1.108L402.899,391.649z M405.861,394.459l8.184,7.761
						l-1.368,1.442l-8.183-7.762L405.861,394.459z"/>
					<path fill="#FFFFFF" d="M406.229,388.015l11.402,10.292l-1.332,1.475l-11.402-10.294L406.229,388.015z"/>
					<path fill="#FFFFFF" d="M421.978,385.352l-4.844,5.85c1.776,1.47,3.591,1.086,5.445-1.154c0.635-0.767,1.187-1.602,1.657-2.504
						l1.241,1.027c-0.47,0.904-1.159,1.905-2.067,3.002c-2.426,2.929-5.119,3.167-8.082,0.713c-2.83-2.343-3.095-4.901-0.797-7.676
						C416.732,381.951,419.214,382.198,421.978,385.352z M415.859,390.146l3.687-4.451c-1.459-1.338-2.791-1.278-3.997,0.178
						C414.315,387.36,414.419,388.785,415.859,390.146z"/>
				</g>
				<g>
					<path fill="#FFFFFF" d="M305.744,416.256c0.867,2.579-0.339,4.419-3.619,5.521c-1.317,0.442-2.542,0.664-3.674,0.667l-0.513-1.527
						c1.152-0.01,2.383-0.235,3.694-0.675c2.009-0.675,2.752-1.793,2.227-3.355l-0.171-0.51c-0.687,0.609-1.492,1.069-2.416,1.378
						c-3.38,1.136-5.676-0.098-6.887-3.702c-1.184-3.524,0.006-5.885,3.571-7.081c1.446-0.486,2.893-0.811,4.342-0.972L305.744,416.256
						z M300.876,408.008c-0.7,0.055-1.525,0.24-2.475,0.56c-2.274,0.764-2.998,2.377-2.17,4.842c0.851,2.533,2.353,3.438,4.505,2.714
						c0.977-0.328,1.774-0.799,2.392-1.415L300.876,408.008z"/>
					<path fill="#FFFFFF" d="M306.993,412.054c-0.876-2.141,0.098-3.788,2.922-4.944c1.041-0.425,1.976-0.73,2.805-0.915l-0.402-0.985
						c-0.464-1.134-1.634-1.315-3.509-0.549c-1.074,0.439-2.106,1.056-3.098,1.847l-0.61-1.492c0.992-0.792,2.024-1.407,3.098-1.847
						c3.102-1.269,5.108-0.79,6.02,1.438l2.904,7.099l-0.935,0.382l-1.036-0.435c-0.708,0.862-1.675,1.544-2.901,2.046
						C309.632,414.771,307.88,414.222,306.993,412.054z M310.525,408.602c-1.598,0.653-2.166,1.543-1.705,2.671
						c0.488,1.192,1.428,1.504,2.82,0.935c1.272-0.52,2.172-1.205,2.699-2.055l-1.009-2.466
						C312.548,407.852,311.612,408.157,310.525,408.602z"/>
					<path fill="#FFFFFF" d="M315.448,395.553l0.676,1.463l-1.805,0.833l-0.676-1.462L315.448,395.553z M317.16,399.258l4.73,10.24
						l-1.804,0.833l-4.731-10.24L317.16,399.258z"/>
					<path fill="#FFFFFF" d="M324.858,408.142l-5.198-10.011l1.191-0.619l0.978,1.114c0.771-1.481,1.771-2.542,2.997-3.178
						c2.308-1.198,4.106-0.554,5.396,1.931l3.262,6.282l-1.763,0.916l-3.277-6.311c-0.772-1.487-1.899-1.846-3.38-1.077
						c-1.01,0.525-1.75,1.446-2.221,2.763l3.777,7.273L324.858,408.142z"/>
					<path fill="#FFFFFF" d="M336.049,401.605l-0.889-1.47c1.294-0.281,2.521-0.772,3.678-1.473c1.539-0.93,2.03-1.855,1.473-2.774
						c-0.519-0.858-1.283-0.98-2.294-0.369l-1.563,0.945c-2.021,1.223-3.607,0.884-4.757-1.015c-1.111-1.838-0.329-3.566,2.349-5.187
						c1.151-0.698,2.356-1.217,3.614-1.559l0.89,1.47c-1.295,0.28-2.518,0.77-3.67,1.466c-1.605,0.972-2.13,1.917-1.574,2.836
						c0.52,0.858,1.253,1,2.203,0.424l1.563-0.945c2.144-1.297,3.792-0.997,4.94,0.903c1.113,1.838,0.333,3.565-2.339,5.181
						C338.515,400.742,337.307,401.264,336.049,401.605z"/>
					<path fill="#FFFFFF" d="M357.693,387.092c-0.843,1.168-2.076,2.34-3.7,3.517c-2.719,1.972-5.227,1.374-7.521-1.792
						c-2.118-2.922-1.733-5.43,1.154-7.523c0.789-0.571,1.639-0.966,2.55-1.185l-2.711-3.74l1.61-1.166L357.693,387.092z
						 M351.211,381.534c-0.876,0.159-1.731,0.54-2.567,1.145c-1.838,1.333-2.049,2.976-0.633,4.931
						c1.677,2.313,3.435,2.804,5.272,1.471c0.836-0.604,1.495-1.256,1.981-1.952L351.211,381.534z"/>
					<path fill="#FFFFFF" d="M364.414,375.953l-5.853,4.84c1.47,1.777,3.324,1.74,5.565-0.114c0.767-0.634,1.465-1.352,2.096-2.152
						l1.027,1.242c-0.63,0.8-1.495,1.654-2.592,2.563c-2.931,2.423-5.622,2.154-8.072-0.809c-2.341-2.831-2.125-5.396,0.651-7.691
						C359.896,371.631,362.289,372.339,364.414,375.953z M357.507,379.518l4.453-3.683c-1.183-1.587-2.501-1.777-3.959-0.573
						C356.512,376.495,356.347,377.914,357.507,379.518z"/>
					<path fill="#FFFFFF" d="M369.657,377.355l-1.174-1.255c1.209-0.542,2.309-1.275,3.298-2.199c1.313-1.227,1.603-2.233,0.87-3.018
						c-0.685-0.734-1.458-0.696-2.322,0.11l-1.334,1.248c-1.728,1.613-3.349,1.608-4.864-0.014c-1.467-1.57-1.057-3.423,1.23-5.559
						c0.983-0.919,2.056-1.675,3.216-2.27l1.173,1.255c-1.208,0.542-2.305,1.272-3.289,2.191c-1.371,1.281-1.689,2.313-0.956,3.099
						c0.685,0.732,1.432,0.72,2.243-0.039l1.334-1.246c1.832-1.712,3.505-1.756,5.021-0.135c1.467,1.57,1.06,3.422-1.222,5.553
						C371.892,376.002,370.817,376.761,369.657,377.355z"/>
				</g>
			</g>
		</g>
		<g id="svg-best-in-class-health-safety-environment" class="slice">
			<g id="svg-bg-best-in-class-health-safety-environment">
				<path fill="#262262" stroke="#FFFFFF" stroke-width="2.3" stroke-miterlimit="10" d="M466.979,132.102l-117.68,67.914
					c9.189,15.859,14.479,34.257,14.479,53.899c0,19.641-5.289,38.041-14.479,53.902l117.68,67.913
					C511.785,298.121,511.785,209.708,466.979,132.102z"/>
			</g>
			<g id="svg-text-best-in-class-health-safety-environment">
				<g>
					<path fill="#FFFFFF" d="M439.26,172.515l1.732-0.751c0.113,1.45,0.468,2.856,1.059,4.219c0.785,1.811,1.719,2.481,2.801,2.012
						c1.009-0.438,1.256-1.252,0.739-2.442l-0.798-1.839c-1.032-2.38-0.431-4.055,1.806-5.024c2.163-0.939,3.929,0.167,5.296,3.319
						c0.588,1.355,0.976,2.743,1.163,4.162l-1.731,0.75c-0.114-1.449-0.466-2.853-1.055-4.208c-0.819-1.89-1.771-2.6-2.852-2.131
						c-1.01,0.438-1.272,1.216-0.787,2.334l0.797,1.839c1.096,2.524,0.525,4.271-1.71,5.241c-2.164,0.938-3.928-0.164-5.292-3.309
						C439.836,175.324,439.448,173.934,439.26,172.515z"/>
					<path fill="#FFFFFF" d="M446.708,181.577c2.385-0.87,4.152,0.269,5.299,3.415c0.422,1.16,0.718,2.198,0.885,3.116l1.098-0.4
						c1.263-0.46,1.513-1.736,0.751-3.826c-0.437-1.197-1.067-2.355-1.896-3.476l1.662-0.606c0.827,1.121,1.459,2.28,1.895,3.476
						c1.261,3.456,0.649,5.637-1.831,6.542l-7.911,2.884l-0.379-1.042l0.521-1.119c-0.916-0.813-1.622-1.902-2.12-3.269
						C443.617,184.356,444.293,182.458,446.708,181.577z M450.345,185.598c-0.649-1.78-1.601-2.441-2.856-1.983
						c-1.33,0.485-1.712,1.503-1.146,3.053c0.518,1.418,1.23,2.434,2.141,3.048l2.747-1.001
						C451.082,187.848,450.787,186.809,450.345,185.598z"/>
					<path fill="#FFFFFF" d="M447.542,195.339l11.882-3.486l0.414,1.415l-1.406,0.818c1.434,1.144,2.364,2.444,2.791,3.9
						c0.803,2.738-0.271,4.54-3.22,5.405l-7.456,2.188l-0.614-2.094l7.49-2.197c1.766-0.518,2.391-1.656,1.874-3.413
						c-0.352-1.2-1.187-2.191-2.508-2.976l-8.633,2.533L447.542,195.339z"/>
					<path fill="#FFFFFF" d="M465.193,205.017l0.318,1.331l-1.84,0.925l0.669,2.798l-1.72,0.412l-0.591-2.466l-6.915,1.655
						c-1.123,0.269-1.569,0.889-1.337,1.859l0.241,1.01l-1.721,0.411l-0.373-1.56c-0.482-2.019,0.358-3.286,2.521-3.804
						L465.193,205.017z"/>
					<path fill="#FFFFFF" d="M460.135,223.869l-1.548-8.192c-2.487,0.47-3.435,2.272-2.843,5.409c0.203,1.074,0.521,2.125,0.956,3.156
						l-1.737,0.328c-0.435-1.03-0.797-2.313-1.087-3.851c-0.775-4.102,0.911-6.545,5.06-7.328c3.963-0.748,6.312,0.82,7.045,4.706
						C466.684,221.82,464.735,223.744,460.135,223.869z M460.373,215.339l1.177,6.234c2.152-0.294,3.036-1.461,2.65-3.5
						C463.806,215.987,462.531,215.076,460.373,215.339z M471.614,219.013l-1.738,0.328l-2.612-4.307l1.737-0.328L471.614,219.013z"/>
					<path fill="#FFFFFF" d="M457.67,230.649l-5.328-1.026l-0.308-2.16l5.328,1.026L457.67,230.649z"/>
					<path fill="#FFFFFF" d="M456.981,238.293l1.881-0.14c-0.367,1.407-0.497,2.851-0.386,4.333c0.146,1.968,0.808,2.908,1.984,2.82
						c1.098-0.082,1.598-0.77,1.501-2.063l-0.149-1.999c-0.192-2.587,0.927-3.971,3.356-4.152c2.353-0.175,3.655,1.45,3.911,4.875
						c0.11,1.474,0.021,2.911-0.27,4.313l-1.882,0.141c0.368-1.407,0.497-2.848,0.388-4.321c-0.153-2.054-0.817-3.037-1.994-2.949
						c-1.097,0.082-1.601,0.73-1.51,1.945l0.149,1.999c0.204,2.744-0.909,4.206-3.34,4.388c-2.352,0.175-3.654-1.446-3.909-4.864
						C456.602,241.136,456.691,239.694,456.981,238.293z"/>
					<path fill="#FFFFFF" d="M462.934,259.781l-0.166-8.335c-2.531,0.051-3.766,1.672-3.7,4.863c0.021,1.092,0.161,2.182,0.418,3.27
						l-1.769,0.036c-0.257-1.088-0.401-2.414-0.433-3.979c-0.084-4.173,1.985-6.302,6.205-6.387c4.032-0.081,6.089,1.855,6.167,5.809
						C469.733,258.846,467.493,260.421,462.934,259.781z M464.583,251.409l0.126,6.343c2.173,0.066,3.237-0.938,3.196-3.013
						C467.863,252.617,466.755,251.507,464.583,251.409z M475.06,256.896l-1.769,0.036l-1.862-4.68l1.769-0.036L475.06,256.896z"/>
					<path fill="#FFFFFF" d="M457.253,272.027c-0.193-1.031-0.266-2.136-0.216-3.314c0.187-4.477,2.42-6.626,6.701-6.447
						c3.967,0.166,5.856,2.487,5.669,6.964c-0.049,1.178-0.213,2.272-0.49,3.284l-1.769-0.074c0.278-1.011,0.439-2.027,0.482-3.048
						c0.132-3.181-1.195-4.83-3.984-4.947c-3.102-0.129-4.719,1.396-4.853,4.578c-0.042,1.021,0.033,2.047,0.226,3.078L457.253,272.027
						z"/>
					<path fill="#FFFFFF" d="M468,285.79l-12.317-1.259l0.152-1.49l1.611-0.215c-0.896-1.601-1.267-3.156-1.112-4.665
						c0.289-2.831,1.964-4.09,5.021-3.778l7.73,0.791l-0.223,2.17l-7.766-0.794c-1.83-0.187-2.837,0.627-3.022,2.441
						c-0.128,1.244,0.271,2.481,1.196,3.714l8.951,0.915L468,285.79z"/>
					<path fill="#FFFFFF" d="M455.244,287.349l12.238,1.883l-0.226,1.457l-1.62,0.144c0.875,1.232,1.198,2.603,0.966,4.11l-1.794-0.276
						c0.225-1.461-0.11-2.726-1.004-3.794l-8.893-1.368L455.244,287.349z"/>
					<path fill="#FFFFFF" d="M465.841,298.998l-12.175-2.256l0.397-2.145l12.175,2.255L465.841,298.998z M470.248,299.814l-1.74-0.322
						l0.398-2.146l1.738,0.322L470.248,299.814z"/>
					<path fill="#FFFFFF" d="M467.165,302.672l-0.289,1.336l-2.06,0.037l-0.608,2.812l-1.729-0.374l0.537-2.478l-6.95-1.504
						c-1.129-0.244-1.8,0.121-2.011,1.097l-0.22,1.014l-1.729-0.374l0.34-1.567c0.439-2.028,1.746-2.808,3.92-2.337L467.165,302.672z"
						/>
					<path fill="#FFFFFF" d="M454.434,317.485l2.156-8.054c-2.446-0.654-4.081,0.56-4.906,3.644c-0.282,1.055-0.451,2.142-0.506,3.258
						l-1.708-0.457c0.054-1.117,0.283-2.431,0.688-3.942c1.08-4.033,3.658-5.503,7.736-4.412c3.896,1.043,5.333,3.474,4.311,7.294
						C461.225,318.477,458.634,319.366,454.434,317.485z M458.344,309.901l-1.641,6.128c2.067,0.667,3.369-0.001,3.906-2.006
						C461.159,311.973,460.403,310.599,458.344,309.901z M466.884,318.083l-1.708-0.457l-0.49-5.014l1.709,0.457L466.884,318.083z"/>
					<path fill="#FFFFFF" d="M448.549,334.714l2.849-7.835c-2.379-0.865-4.114,0.202-5.204,3.202c-0.374,1.026-0.637,2.094-0.788,3.201
						l-1.662-0.604c0.151-1.107,0.494-2.396,1.029-3.866c1.426-3.923,4.124-5.163,8.09-3.721c3.791,1.378,5.011,3.925,3.659,7.642
						C455.227,336.293,452.569,336.954,448.549,334.714z M453.105,327.5l-2.168,5.962c2.001,0.845,3.356,0.292,4.065-1.658
						C455.728,329.809,455.095,328.374,453.105,327.5z"/>
					<path fill="#FFFFFF" d="M455.515,340.909l-0.528,1.261l-2.032-0.34l-1.112,2.653l-1.631-0.684l0.98-2.338l-6.558-2.75
						c-1.065-0.447-1.792-0.21-2.178,0.71l-0.4,0.958l-1.632-0.685l0.62-1.479c0.803-1.914,2.23-2.44,4.281-1.58L455.515,340.909z"/>
				</g>
				<g>
					<path fill="#FFFFFF" d="M428.465,186.593l-3.351-7.633c-2.318,1.017-2.836,2.987-1.553,5.91c0.439,1,0.985,1.954,1.642,2.859
						l-1.619,0.711c-0.656-0.906-1.298-2.075-1.927-3.507c-1.678-3.822-0.584-6.582,3.281-8.278c3.693-1.621,6.334-0.622,7.924,2.999
						C434.385,183.123,432.92,185.437,428.465,186.593z M426.778,178.229l2.549,5.809c2.031-0.771,2.63-2.107,1.796-4.007
						C430.269,178.088,428.821,177.487,426.778,178.229z"/>
					<path fill="#FFFFFF" d="M424.453,191.535l11.669-4.141l0.493,1.389l-1.359,0.895c1.495,1.063,2.496,2.309,3.004,3.739
						c0.954,2.689-0.018,4.548-2.914,5.576l-7.323,2.599l-0.729-2.056l7.356-2.61c1.733-0.616,2.295-1.786,1.682-3.513
						c-0.418-1.178-1.308-2.122-2.669-2.832l-8.479,3.009L424.453,191.535z"/>
					<path fill="#FFFFFF" d="M440.344,199.448l0.635,2.271l-8.391,6.032l10.295,0.782l0.636,2.271l-13.279-1.515l-0.546-1.953
						L440.344,199.448z"/>
					<path fill="#FFFFFF" d="M444.397,214.903l-12.064,2.78l-0.489-2.125l12.064-2.781L444.397,214.903z M448.763,213.896l-1.724,0.397
						l-0.489-2.126l1.724-0.397L448.763,213.896z"/>
					<path fill="#FFFFFF" d="M433.029,220.881l12.157-2.346l0.279,1.447l-1.479,0.682c1.24,0.866,2.005,2.047,2.294,3.544l-1.783,0.344
						c-0.28-1.451-1.021-2.529-2.222-3.234l-8.833,1.705L433.029,220.881z"/>
					<path fill="#FFFFFF" d="M440.512,226.864c4.091-0.547,6.396,1.128,6.917,5.024s-1.265,6.118-5.355,6.664
						c-4.082,0.545-6.384-1.13-6.905-5.026C434.651,229.646,436.432,227.425,440.512,226.864z M436.911,233.294
						c0.327,2.454,1.969,3.484,4.921,3.09c2.891-0.387,4.172-1.807,3.844-4.261s-1.937-3.489-4.827-3.102
						C437.895,229.415,436.583,230.839,436.911,233.294z"/>
					<path fill="#FFFFFF" d="M436.149,241.777l12.359-0.733l0.087,1.472l-1.554,0.481c1.141,1.437,1.756,2.912,1.845,4.427
						c0.169,2.848-1.28,4.364-4.349,4.545l-7.757,0.46l-0.13-2.178l7.792-0.462c1.837-0.109,2.701-1.077,2.593-2.906
						c-0.074-1.248-0.667-2.402-1.777-3.462l-8.98,0.532L436.149,241.777z"/>
					<path fill="#FFFFFF" d="M436.847,255.35l12.379,0.164l-0.019,1.474l-1.586,0.368c1.033,1.516,1.541,3.032,1.521,4.549
						c-0.038,2.854-1.593,4.26-4.667,4.219l-7.77-0.103l0.029-2.182l7.804,0.104c1.841,0.024,2.771-0.879,2.796-2.71
						c0.017-1.25-0.491-2.444-1.521-3.582l-8.995-0.119L436.847,255.35z"/>
					<path fill="#FFFFFF" d="M441.251,279.396l0.703-8.308c-2.521-0.213-3.918,1.271-4.187,4.451c-0.092,1.088-0.066,2.187,0.076,3.296
						l-1.762-0.149c-0.144-1.108-0.148-2.442-0.018-4.001c0.353-4.16,2.632-6.061,6.837-5.705c4.019,0.339,5.862,2.479,5.528,6.42
						C448.11,279.176,445.717,280.508,441.251,279.396z M443.764,271.242l-0.535,6.321c2.153,0.293,3.316-0.595,3.492-2.663
						C446.9,272.786,445.914,271.566,443.764,271.242z"/>
					<path fill="#FFFFFF" d="M435.522,281.698l12.192,2.155l-0.258,1.451l-1.596,0.089c0.774,1.582,1.04,3.062,0.796,4.439
						c-0.271,1.533-1.02,2.522-2.249,2.968c0.84,1.753,1.14,3.311,0.898,4.673c-0.454,2.57-2.226,3.583-5.313,3.037l-7.561-1.336
						l0.38-2.148l7.676,1.356c1.818,0.321,2.863-0.284,3.135-1.817c0.201-1.146-0.135-2.311-1.012-3.496l-8.824-1.56l0.379-2.148
						l7.641,1.351c1.843,0.325,2.898-0.271,3.167-1.788c0.213-1.208-0.123-2.38-1.008-3.519l-8.824-1.56L435.522,281.698z"/>
					<path fill="#FFFFFF" d="M434.389,312.985l2.191-8.044c-2.442-0.665-4.082,0.542-4.922,3.621c-0.287,1.054-0.461,2.14-0.521,3.256
						l-1.707-0.465c0.061-1.116,0.295-2.429,0.707-3.938c1.097-4.028,3.683-5.486,7.756-4.377c3.89,1.06,5.316,3.498,4.276,7.313
						C441.174,314.007,438.581,314.885,434.389,312.985z M438.333,305.419l-1.667,6.121c2.064,0.676,3.369,0.014,3.915-1.989
						C441.139,307.503,440.389,306.126,438.333,305.419z"/>
					<path fill="#FFFFFF" d="M428.164,314.3l11.679,4.113l-0.49,1.391l-1.619-0.158c0.495,1.766,0.49,3.365-0.015,4.795
						c-0.947,2.692-2.871,3.527-5.771,2.506l-7.329-2.582l0.724-2.057l7.364,2.593c1.734,0.611,2.906,0.053,3.515-1.675
						c0.416-1.179,0.316-2.472-0.296-3.88l-8.486-2.989L428.164,314.3z"/>
					<path fill="#FFFFFF" d="M436.692,332.77l-0.528,1.262l-2.031-0.338l-1.11,2.654l-1.632-0.682l0.978-2.339l-6.561-2.743
						c-1.065-0.446-1.791-0.208-2.177,0.713l-0.399,0.958l-1.633-0.683l0.619-1.479c0.801-1.915,2.227-2.442,4.279-1.584
						L436.692,332.77z"/>
				</g>
				<g>
					<path fill="#FFFFFF" d="M414.318,207.44l-2.442-7.971c-2.421,0.742-3.163,2.638-2.229,5.69c0.32,1.045,0.754,2.055,1.3,3.031
						l-1.691,0.518c-0.546-0.976-1.048-2.211-1.507-3.707c-1.223-3.991,0.184-6.605,4.22-7.842c3.856-1.182,6.363,0.117,7.521,3.898
						C420.6,204.68,418.876,206.808,414.318,207.44z M413.612,198.938l1.858,6.065c2.106-0.531,2.856-1.788,2.247-3.772
						C417.096,199.201,415.727,198.437,413.612,198.938z"/>
					<path fill="#FFFFFF" d="M409.983,212.916l-0.571-2.47l14.149,6.225l0.572,2.47L409.983,212.916z M421.473,207.653l0.572,2.47
						l-9.974,11.812l-0.573-2.47L421.473,207.653z"/>
					<path fill="#FFFFFF" d="M419.564,233.209l-1.31-8.233c-2.5,0.398-3.499,2.173-2.997,5.325c0.172,1.079,0.459,2.14,0.864,3.182
						l-1.747,0.278c-0.405-1.042-0.729-2.336-0.976-3.881c-0.656-4.123,1.1-6.516,5.27-7.179c3.981-0.633,6.284,1.001,6.906,4.907
						C426.169,231.35,424.166,233.217,419.564,233.209z M420.046,224.69l0.998,6.265c2.16-0.232,3.077-1.374,2.751-3.422
						C423.461,225.437,422.212,224.489,420.046,224.69z"/>
					<path fill="#FFFFFF" d="M414.551,236.814l12.353-0.837l0.1,1.47l-1.528,0.47c1.132,1.349,1.745,2.722,1.84,4.118
						c0.105,1.553-0.385,2.693-1.471,3.421c1.236,1.5,1.901,2.94,1.995,4.32c0.177,2.604-1.3,4.012-4.43,4.225l-7.658,0.519
						l-0.147-2.176l7.775-0.527c1.844-0.125,2.713-0.964,2.607-2.518c-0.078-1.16-0.686-2.21-1.821-3.15l-8.94,0.606l-0.147-2.177
						l7.74-0.525c1.867-0.126,2.749-0.959,2.645-2.496c-0.083-1.224-0.691-2.282-1.823-3.174l-8.939,0.606L414.551,236.814z"/>
					<path fill="#FFFFFF" d="M427.52,257.572c0.301,1.65,0.432,3.352,0.393,5.104c-0.089,3.969-2.094,5.91-6.016,5.822
						c-4.33-0.097-6.451-2.142-6.361-6.134c0.022-0.991,0.24-1.945,0.653-2.864l-5.069-0.113l0.05-2.181L427.52,257.572z
						 M418.123,259.545c-0.443,0.847-0.677,1.797-0.7,2.851c-0.058,2.57,1.458,3.89,4.546,3.958c2.695,0.061,4.072-1.187,4.129-3.741
						c0.025-1.1-0.047-2.064-0.218-2.895L418.123,259.545z"/>
					<path fill="#FFFFFF" d="M431.816,274.349l-16.817-1.235l0.16-2.176l16.817,1.235L431.816,274.349z"/>
					<path fill="#FFFFFF" d="M418.681,276.164c2.52,0.312,3.574,2.129,3.163,5.453c-0.151,1.225-0.362,2.284-0.631,3.178l1.158,0.144
						c1.334,0.165,2.138-0.857,2.411-3.064c0.156-1.264,0.121-2.583-0.104-3.958l1.756,0.217c0.226,1.375,0.261,2.694,0.104,3.958
						c-0.451,3.651-1.988,5.314-4.61,4.991l-8.355-1.034l0.137-1.1l0.973-0.759c-0.444-1.141-0.578-2.433-0.399-3.875
						C414.665,277.231,416.13,275.848,418.681,276.164z M420.088,281.399c0.233-1.88-0.313-2.902-1.64-3.066
						c-1.404-0.174-2.208,0.559-2.41,2.197c-0.186,1.498-0.013,2.727,0.519,3.688l2.902,0.359
						C419.721,283.738,419.931,282.679,420.088,281.399z"/>
					<path fill="#FFFFFF" d="M424.834,293.434l-12.196-2.131l0.376-2.149l12.196,2.131L424.834,293.434z M429.25,294.205l-1.743-0.304
						l0.376-2.149l1.741,0.305L429.25,294.205z"/>
					<path fill="#FFFFFF" d="M412.037,294.521l12.112,2.568l-0.306,1.442l-1.627,0.053c0.806,1.28,1.051,2.666,0.734,4.158
						l-1.776-0.376c0.307-1.446,0.043-2.727-0.789-3.844l-8.8-1.866L412.037,294.521z"/>
					<path fill="#FFFFFF" d="M413.233,312.938l2.184-8.046c-2.443-0.663-4.083,0.546-4.918,3.626c-0.286,1.054-0.459,2.14-0.518,3.256
						l-1.706-0.463c0.058-1.116,0.292-2.429,0.702-3.939c1.093-4.029,3.676-5.49,7.75-4.385c3.892,1.056,5.32,3.492,4.284,7.309
						C420.021,313.953,417.427,314.834,413.233,312.938z M417.169,305.368l-1.662,6.123c2.065,0.674,3.37,0.01,3.914-1.993
						C419.977,307.45,419.226,306.073,417.169,305.368z"/>
				</g>
			</g>
		</g>
		<g id="svg-extraordinary-people" class="slice">
			<g id="svg-bg-extraordinary-people">
				<path fill="#0091B9" stroke="#FFFFFF" stroke-width="2.3" stroke-miterlimit="10" d="M349.299,200.016l117.68-67.914
					C422.174,54.496,345.553,10.289,255.943,10.289v135.813C295.846,146.103,330.66,167.796,349.299,200.016z"/>
			</g>
			<g id="svg-text-extraordinary-people">
				<g>
					<path fill="#FFFFFF" d="M313.685,45.933c1.672,0.138,3.349,0.451,5.033,0.942c3.81,1.114,5.165,3.553,4.065,7.318
						c-1.215,4.157-3.74,5.677-7.572,4.557c-0.951-0.278-1.816-0.735-2.597-1.373l-1.422,4.867l-2.094-0.612L313.685,45.933z
						 M313.156,55.521c0.704,0.647,1.561,1.119,2.573,1.414c2.467,0.722,4.134-0.401,5-3.367c0.756-2.587-0.092-4.24-2.544-4.957
						c-1.057-0.308-2.008-0.487-2.853-0.538L313.156,55.521z"/>
					<path fill="#FFFFFF" d="M334.262,59.288l-7.838-2.84c-0.862,2.379,0.207,4.113,3.208,5.201c1.027,0.372,2.095,0.633,3.202,0.784
						l-0.603,1.662c-1.108-0.15-2.397-0.493-3.868-1.025c-3.925-1.422-5.167-4.118-3.729-8.087c1.374-3.792,3.92-5.014,7.638-3.666
						C335.835,52.608,336.499,55.266,334.262,59.288z M327.043,54.74l5.965,2.161c0.843-2.002,0.288-3.356-1.662-4.064
						C329.35,52.114,327.917,52.749,327.043,54.74z"/>
					<path fill="#FFFFFF" d="M334.892,65.584l4.783-11.421l1.359,0.569l-0.251,1.607c1.408-0.552,2.814-0.534,4.221,0.056l-0.701,1.675
						c-1.364-0.571-2.671-0.553-3.924,0.058l-3.475,8.298L334.892,65.584z"/>
					<path fill="#FFFFFF" d="M341.856,67.876l0.808-1.704c1.041,1.016,2.233,1.841,3.575,2.478c1.783,0.846,2.927,0.736,3.433-0.33
						c0.472-0.994,0.122-1.769-1.051-2.324l-1.811-0.859c-2.345-1.111-2.994-2.769-1.95-4.97c1.01-2.132,3.067-2.461,6.172-0.989
						c1.335,0.634,2.54,1.422,3.615,2.367l-0.809,1.704c-1.041-1.015-2.229-1.84-3.564-2.474c-1.861-0.883-3.044-0.79-3.549,0.275
						c-0.472,0.994-0.157,1.753,0.944,2.275l1.812,0.857c2.485,1.18,3.207,2.87,2.162,5.072c-1.01,2.131-3.064,2.462-6.16,0.993
						C344.139,69.611,342.93,68.821,341.856,67.876z"/>
					<path fill="#FFFFFF" d="M354.578,67.749c1.991-3.615,4.708-4.475,8.151-2.579c3.442,1.896,4.169,4.652,2.178,8.268
						c-1.987,3.608-4.702,4.464-8.146,2.568C353.333,74.117,352.604,71.364,354.578,67.749z M357.609,74.467
						c2.168,1.194,3.972,0.486,5.41-2.123c1.406-2.555,1.025-4.429-1.144-5.624s-3.957-0.515-5.364,2.04
						C355.075,71.37,355.44,73.272,357.609,74.467z"/>
					<path fill="#FFFFFF" d="M363.794,79.992l6.659-10.439l1.243,0.794l-0.522,1.541c1.833-0.08,3.388,0.287,4.667,1.104
						c2.405,1.534,2.782,3.598,1.128,6.188l-4.179,6.552l-1.839-1.174l4.198-6.581c0.989-1.55,0.712-2.818-0.832-3.804
						c-1.054-0.672-2.336-0.869-3.846-0.594l-4.839,7.587L363.794,79.992z"/>
					<path fill="#FFFFFF" d="M375.095,87.31l7.326-9.982l1.188,0.872l-0.622,1.505c1.834,0.039,3.362,0.508,4.585,1.405
						c2.301,1.688,2.542,3.772,0.724,6.249l-4.598,6.266l-1.759-1.291l4.619-6.293c1.088-1.483,0.894-2.767-0.583-3.851
						c-1.008-0.739-2.274-1.021-3.799-0.843l-5.324,7.254L375.095,87.31z"/>
					<path fill="#FFFFFF" d="M397.065,97.454l-6.394-5.351c-1.624,1.94-1.212,3.937,1.235,5.984c0.838,0.701,1.752,1.312,2.741,1.832
						l-1.136,1.356c-0.989-0.521-2.083-1.282-3.283-2.286c-3.202-2.68-3.448-5.637-0.738-8.875c2.588-3.093,5.398-3.37,8.431-0.833
						C400.828,91.715,400.542,94.438,397.065,97.454z M391.837,90.71l4.865,4.072c1.477-1.594,1.419-3.057-0.172-4.389
						C394.903,89.032,393.338,89.137,391.837,90.71z"/>
					<path fill="#FFFFFF" d="M395.898,103.093l1.295-1.372c0.677,1.287,1.555,2.441,2.636,3.46c1.435,1.354,2.558,1.604,3.366,0.745
						c0.756-0.8,0.662-1.646-0.281-2.535l-1.458-1.377c-1.887-1.78-1.994-3.557-0.321-5.329c1.619-1.715,3.677-1.395,6.175,0.964
						c1.075,1.015,1.978,2.137,2.709,3.367l-1.295,1.371c-0.677-1.287-1.553-2.438-2.628-3.452c-1.498-1.414-2.651-1.691-3.46-0.834
						c-0.755,0.802-0.69,1.62,0.196,2.455l1.458,1.376c2.002,1.888,2.166,3.72,0.494,5.491c-1.619,1.716-3.674,1.396-6.167-0.955
						C397.536,105.447,396.629,104.323,395.898,103.093z"/>
				</g>
				<g>
					<path fill="#FFFFFF" d="M284.787,69.503l-8.277-0.992c-0.302,2.514,1.132,3.96,4.302,4.34c1.084,0.13,2.183,0.144,3.297,0.039
						l-0.211,1.757c-1.113,0.103-2.446,0.063-4-0.123c-4.145-0.498-5.965-2.842-5.463-7.033c0.48-4.004,2.683-5.771,6.609-5.3
						C284.806,62.641,286.053,65.079,284.787,69.503z M276.725,66.707l6.299,0.756c0.367-2.142-0.479-3.336-2.54-3.582
						C278.377,63.628,277.124,64.569,276.725,66.707z"/>
					<path fill="#FFFFFF" d="M288.039,75.683l-2.49-0.478l11.42-10.42l2.489,0.477L288.039,75.683z M287.876,63.045l2.49,0.477
						l6.763,13.901l-2.489-0.478L287.876,63.045z"/>
					<path fill="#FFFFFF" d="M303.017,64.09l1.327,0.33l-0.026,2.06l2.792,0.695l-0.428,1.716l-2.46-0.612l-1.719,6.899
						c-0.279,1.122,0.065,1.803,1.034,2.045l1.007,0.25l-0.428,1.717l-1.556-0.388c-2.013-0.502-2.751-1.831-2.214-3.99L303.017,64.09z
						"/>
					<path fill="#FFFFFF" d="M306.657,79.887l3.484-11.881l1.415,0.414l-0.071,1.626c1.337-0.706,2.737-0.844,4.202-0.415l-0.511,1.743
						c-1.418-0.417-2.716-0.251-3.893,0.493L308.75,80.5L306.657,79.887z"/>
					<path fill="#FFFFFF" d="M314.643,78.195c0.851-2.393,2.853-3.029,6.009-1.908c1.163,0.413,2.152,0.848,2.966,1.304l0.391-1.101
						c0.45-1.267-0.373-2.272-2.469-3.016c-1.2-0.428-2.496-0.679-3.887-0.756l0.592-1.667c1.391,0.077,2.686,0.329,3.886,0.755
						c3.467,1.232,4.758,3.092,3.874,5.581l-2.818,7.933l-1.045-0.369l-0.529-1.115c-1.21,0.188-2.5,0.038-3.871-0.449
						C314.816,82.348,313.783,80.617,314.643,78.195z M320.06,77.953c-1.785-0.634-2.901-0.32-3.349,0.938
						c-0.474,1.334,0.067,2.275,1.623,2.829c1.422,0.505,2.66,0.604,3.712,0.293l0.979-2.756
						C322.263,78.82,321.274,78.386,320.06,77.953z"/>
					<path fill="#FFFFFF" d="M327.938,80.512c1.658-3.779,4.286-4.88,7.886-3.302s4.57,4.259,2.913,8.039
						c-1.654,3.771-4.282,4.868-7.882,3.29C327.27,86.966,326.297,84.291,327.938,80.512z M331.562,86.93
						c2.268,0.994,4,0.128,5.197-2.602c1.171-2.67,0.623-4.503-1.645-5.498s-3.987-0.156-5.159,2.516
						C328.758,84.073,329.293,85.935,331.562,86.93z"/>
					<path fill="#FFFFFF" d="M338.481,92.09l5.613-11.035l1.314,0.668l-0.369,1.585c1.444-0.447,2.846-0.324,4.205,0.366l-0.823,1.619
						c-1.317-0.671-2.624-0.748-3.917-0.233l-4.08,8.02L338.481,92.09z"/>
					<path fill="#FFFFFF" d="M354.491,100.126c-1.543-0.345-3.259-1.081-5.148-2.21c-3.166-1.891-3.648-4.679-1.447-8.362
						c2.032-3.401,4.729-4.1,8.089-2.092c0.918,0.548,1.685,1.235,2.3,2.061l2.6-4.354l1.873,1.12L354.491,100.126z M357.292,91.183
						c-0.538-0.816-1.293-1.515-2.265-2.096c-2.14-1.276-3.889-0.779-5.247,1.495c-1.608,2.692-1.343,4.68,0.797,5.956
						c0.972,0.581,1.915,0.965,2.827,1.153L357.292,91.183z"/>
					<path fill="#FFFFFF" d="M365.451,93.328l-6.758,10.373l-1.828-1.189l6.758-10.375L365.451,93.328z M367.897,89.572l-0.966,1.482
						l-1.828-1.189l0.966-1.483L367.897,89.572z"/>
					<path fill="#FFFFFF" d="M361.335,105.39l7.283-10.013l1.192,0.866l-0.615,1.507c1.833,0.032,3.364,0.494,4.59,1.387
						c2.308,1.678,2.558,3.762,0.75,6.246l-4.572,6.283l-1.764-1.282l4.592-6.313c1.082-1.486,0.882-2.77-0.599-3.847
						c-1.01-0.736-2.277-1.012-3.802-0.827l-5.293,7.276L361.335,105.39z"/>
					<path fill="#FFFFFF" d="M374.372,110.217c1.638-1.939,3.737-1.829,6.296,0.33c0.943,0.796,1.715,1.553,2.316,2.266l0.753-0.893
						c0.867-1.027,0.451-2.258-1.249-3.693c-0.974-0.821-2.097-1.514-3.372-2.074l1.141-1.354c1.274,0.563,2.398,1.254,3.372,2.076
						c2.811,2.373,3.364,4.569,1.661,6.587l-5.432,6.435l-0.847-0.717l-0.104-1.229c-1.198-0.25-2.353-0.844-3.463-1.782
						C373.07,114.165,372.713,112.182,374.372,110.217z M379.526,111.898c-1.447-1.222-2.603-1.322-3.464-0.301
						c-0.913,1.081-0.739,2.154,0.522,3.219c1.154,0.975,2.278,1.501,3.373,1.582l1.886-2.234
						C381.284,113.485,380.511,112.73,379.526,111.898z"/>
					<path fill="#FFFFFF" d="M392.212,114.515l-8.451,9.049l-1.594-1.489l8.452-9.048L392.212,114.515z M395.272,111.241l-1.208,1.292
						l-1.594-1.489l1.207-1.293L395.272,111.241z"/>
					<path fill="#FFFFFF" d="M386.12,125.819l8.772-8.738l1.041,1.043l-0.845,1.392c1.512,0.024,2.805,0.578,3.882,1.658l-1.286,1.281
						c-1.044-1.047-2.26-1.527-3.649-1.441l-6.375,6.351L386.12,125.819z"/>
					<path fill="#FFFFFF" d="M402.212,134.907l-5.543-6.228c-1.892,1.683-1.775,3.715,0.347,6.1c0.727,0.816,1.541,1.555,2.444,2.214
						l-1.321,1.175c-0.903-0.658-1.875-1.572-2.915-2.741c-2.776-3.118-2.586-6.08,0.567-8.887c3.012-2.682,5.833-2.545,8.462,0.409
						C406.773,129.779,406.092,132.432,402.212,134.907z M398.026,127.472l4.218,4.739c1.694-1.36,1.852-2.815,0.471-4.366
						C401.304,126.26,399.741,126.135,398.026,127.472z"/>
					<path fill="#FFFFFF" d="M400.369,140.501l1.49-1.155c0.47,1.376,1.161,2.65,2.071,3.825c1.209,1.559,2.28,1.977,3.212,1.254
						c0.87-0.675,0.907-1.524,0.112-2.55l-1.229-1.583c-1.59-2.05-1.422-3.822,0.504-5.315c1.863-1.444,3.848-0.811,5.953,1.903
						c0.906,1.169,1.625,2.417,2.157,3.744l-1.491,1.157c-0.47-1.376-1.158-2.649-2.064-3.816c-1.263-1.628-2.359-2.08-3.291-1.358
						c-0.87,0.675-0.932,1.493-0.185,2.456l1.229,1.586c1.687,2.173,1.566,4.007-0.359,5.5c-1.864,1.445-3.846,0.814-5.946-1.894
						C401.622,143.081,400.9,141.829,400.369,140.501z"/>
				</g>
			</g>
		</g>
	</g>
</svg>
