<?xml version="1.0" encoding="utf-8"?>
<!-- Generator: Adobe Illustrator 16.0.0, SVG Export Plug-In . SVG Version: 6.00 Build 0)  -->
<!DOCTYPE svg PUBLIC "-//W3C//DTD SVG 1.1//EN" "http://www.w3.org/Graphics/SVG/1.1/DTD/svg11.dtd">
<!--<svg version="1.1" id="vision-2020-svg" xmlns="http://www.w3.org/2000/svg" xmlns:xlink="http://www.w3.org/1999/xlink" x="0px" y="0px"
	 width="512.121px" height="508.104px" viewBox="0 0 512.121 508.104" enable-background="new 0 0 512.121 508.104"
	 xml:space="preserve">-->
<!--<svg version="1.1" id="vision-2020-svg" width="519" height="519" viewBox="9 12 519 519" xml:space="preserve">-->
<svg version="1.1" id="vision-2020-svg" xmlns="http://www.w3.org/2000/svg" xmlns:xlink="http://www.w3.org/1999/xlink" x="0px" y="0px"
	 width="519px" height="519px" viewBox="9 12 519 519" enable-background="new 0 0 519 519"
	 xml:space="preserve">
	<g id="svg-region" transform="scale(.932) translate(32,32)">
		<g id="svg-extraordinary-people" class="slice">
			<g id="svg-bg-people">
				<path fill="#0091B9" stroke="#FFFFFF" stroke-width="2.3" stroke-miterlimit="10" d="M349.299,200.016l117.68-67.914
					C422.174,54.496,345.553,10.289,255.943,10.289v135.813C295.846,146.103,330.66,167.796,349.299,200.016z"/>
			</g>
			<g id="svg-text-people">
				<path fill="#FFFFFF" d="M321.215,69.902c1.65,0.3,3.289,0.777,4.916,1.432c3.683,1.481,4.792,4.043,3.327,7.683
					c-1.617,4.018-4.278,5.281-7.983,3.79c-0.919-0.37-1.736-0.91-2.45-1.621l-1.893,4.704l-2.023-0.814L321.215,69.902z
					 M319.747,79.392c0.637,0.713,1.443,1.268,2.42,1.66c2.385,0.96,4.154,0.007,5.307-2.859c1.007-2.501,0.325-4.229-2.045-5.183
					c-1.021-0.411-1.949-0.684-2.786-0.816L319.747,79.392z"/>
				<path fill="#FFFFFF" d="M340.583,85.404l-7.493-3.656c-1.11,2.275-0.231,4.112,2.638,5.512c0.981,0.479,2.016,0.853,3.101,1.119
					l-0.776,1.591c-1.085-0.268-2.331-0.744-3.736-1.431c-3.752-1.829-4.702-4.643-2.851-8.437c1.768-3.624,4.429-4.569,7.983-2.835
					C342.854,78.929,343.232,81.642,340.583,85.404z M333.887,80.116l5.702,2.781c1.05-1.901,0.643-3.308-1.222-4.217
					C336.458,77.75,334.965,78.228,333.887,80.116z"/>
				<path fill="#FFFFFF" d="M343.306,86.112c2.068-3.571,4.804-4.372,8.205-2.402c3.402,1.97,4.068,4.741,2,8.313
					c-2.064,3.564-4.798,4.361-8.199,2.392C341.924,92.452,341.254,89.684,343.306,86.112z M346.191,92.893
					c2.143,1.24,3.96,0.572,5.454-2.005c1.462-2.524,1.122-4.407-1.021-5.648c-2.143-1.241-3.945-0.6-5.407,1.925
					C343.724,89.743,344.049,91.652,346.191,92.893z"/>
				<path fill="#FFFFFF" d="M359.048,88.82c1.548,0.645,3.048,1.458,4.5,2.443c3.283,2.23,3.822,4.969,1.619,8.213
					c-2.434,3.583-5.304,4.253-8.606,2.009c-0.82-0.557-1.503-1.258-2.05-2.104l-2.849,4.194l-1.805-1.226L359.048,88.82z
					 M355.599,97.781c0.47,0.833,1.141,1.545,2.013,2.137c2.126,1.445,4.058,0.89,5.793-1.666c1.515-2.23,1.216-4.063-0.897-5.499
					c-0.91-0.619-1.76-1.082-2.549-1.39L355.599,97.781z"/>
				<path fill="#FFFFFF" d="M375.449,94.317l-10.174,13.446l-1.74-1.316l10.176-13.446L375.449,94.317z"/>
				<path fill="#FFFFFF" d="M378.998,111.777l-6.39-5.354c-1.626,1.938-1.216,3.936,1.229,5.985c0.837,0.701,1.751,1.313,2.74,1.834
					l-1.136,1.355c-0.99-0.521-2.084-1.283-3.283-2.289c-3.199-2.682-3.443-5.641-0.73-8.875c2.591-3.091,5.4-3.366,8.432-0.826
					C382.763,106.041,382.476,108.763,378.998,111.777z M373.775,105.031l4.86,4.074c1.479-1.592,1.423-3.055-0.168-4.388
					C376.841,103.353,375.277,103.458,373.775,105.031z"/>
			</g>
			<g id="svg-text-extrordinary">
				<path fill="#FFFFFF" d="M305.305,50.113l-8.124-1.879c-0.57,2.467,0.7,4.06,3.809,4.778c1.065,0.246,2.157,0.377,3.274,0.395
					l-0.399,1.723c-1.118-0.017-2.438-0.201-3.962-0.554c-4.068-0.94-5.626-3.467-4.674-7.58c0.909-3.929,3.29-5.448,7.143-4.557
					C306.063,43.293,307.041,45.851,305.305,50.113z M297.591,46.465l6.181,1.43c0.597-2.089-0.116-3.368-2.138-3.835
					C299.565,43.581,298.218,44.383,297.591,46.465z"/>
				<path fill="#FFFFFF" d="M307.659,56.528l-2.431-0.722l12.403-9.23l2.429,0.723L307.659,56.528z M308.759,43.938l2.429,0.723
					l5.343,14.506l-2.429-0.722L308.759,43.938z"/>
				<path fill="#FFFFFF" d="M323.356,46.346l1.291,0.452l-0.217,2.048l2.715,0.951l-0.585,1.669l-2.392-0.838l-2.351,6.711
					c-0.381,1.091-0.102,1.801,0.841,2.131l0.979,0.343l-0.584,1.668l-1.514-0.53c-1.959-0.687-2.57-2.079-1.834-4.179L323.356,46.346z
					"/>
				<path fill="#FFFFFF" d="M325.213,62.291l4.502-11.534l1.373,0.536l-0.212,1.613c1.394-0.586,2.801-0.603,4.221-0.048l-0.66,1.692
					c-1.376-0.538-2.684-0.486-3.921,0.153l-3.272,8.381L325.213,62.291z"/>
				<path fill="#FFFFFF" d="M333.037,61.184c1.038-2.317,3.084-2.792,6.141-1.423c1.127,0.504,2.078,1.016,2.852,1.536l0.477-1.065
					c0.55-1.227-0.191-2.295-2.221-3.204c-1.163-0.521-2.435-0.875-3.814-1.063l0.724-1.614c1.379,0.187,2.651,0.541,3.814,1.062
					c3.356,1.503,4.496,3.46,3.416,5.871l-3.441,7.685l-1.012-0.454l-0.439-1.153c-1.221,0.091-2.495-0.161-3.823-0.755
					C332.877,65.338,331.987,63.53,333.037,61.184z M338.456,61.375c-1.73-0.774-2.867-0.551-3.413,0.668
					c-0.579,1.292-0.114,2.275,1.392,2.95c1.378,0.617,2.603,0.813,3.678,0.587l1.195-2.669
					C340.583,62.414,339.632,61.902,338.456,61.375z"/>
				<path fill="#FFFFFF" d="M345.869,64.429c1.922-3.652,4.621-4.564,8.101-2.733c3.478,1.83,4.256,4.572,2.335,8.224
					c-1.919,3.646-4.617,4.553-8.095,2.723C344.745,70.82,343.963,68.082,345.869,64.429z M349.028,71.088
					c2.191,1.153,3.98,0.411,5.369-2.226c1.357-2.581,0.939-4.448-1.251-5.601c-2.191-1.153-3.966-0.439-5.324,2.142
					C346.434,68.04,346.836,69.935,349.028,71.088z"/>
				<path fill="#FFFFFF" d="M355.296,76.584l6.164-10.739l1.28,0.735l-0.45,1.563c1.467-0.373,2.859-0.181,4.182,0.579l-0.902,1.575
					c-1.282-0.736-2.582-0.879-3.899-0.431l-4.479,7.803L355.296,76.584z"/>
				<path fill="#FFFFFF" d="M370.767,85.435c-1.526-0.414-3.207-1.228-5.046-2.441c-3.075-2.031-3.432-4.838-1.065-8.42
					c2.184-3.306,4.908-3.881,8.175-1.723c0.892,0.589,1.627,1.31,2.204,2.162l2.795-4.231l1.82,1.202L370.767,85.435z M373.968,76.627
					c-0.5-0.839-1.223-1.571-2.167-2.195c-2.079-1.374-3.85-0.955-5.309,1.256c-1.729,2.617-1.554,4.612,0.525,5.986
					c0.943,0.624,1.869,1.051,2.771,1.28L373.968,76.627z"/>
				<path fill="#FFFFFF" d="M381.712,79.036l-7.276,10.017l-1.767-1.282l7.277-10.017L381.712,79.036z M384.346,75.41l-1.04,1.432
					l-1.765-1.282l1.039-1.431L384.346,75.41z"/>
				<path fill="#FFFFFF" d="M376.776,90.715l7.724-9.677l1.152,0.919l-0.683,1.478c1.83,0.114,3.341,0.644,4.525,1.59
					c2.229,1.781,2.387,3.872,0.469,6.274l-4.848,6.074l-1.705-1.361l4.87-6.101c1.146-1.438,1.006-2.728-0.427-3.871
					c-0.978-0.78-2.23-1.112-3.762-0.996l-5.611,7.032L376.776,90.715z"/>
				<path fill="#FFFFFF" d="M389.381,95.934c1.707-1.879,3.8-1.693,6.278,0.559c0.913,0.83,1.658,1.612,2.233,2.347l0.783-0.863
					c0.904-0.996,0.533-2.241-1.113-3.737c-0.942-0.856-2.04-1.588-3.294-2.196l1.188-1.309c1.254,0.608,2.353,1.34,3.295,2.196
					c2.722,2.474,3.196,4.689,1.42,6.644l-5.663,6.231l-0.818-0.745l-0.06-1.233c-1.188-0.293-2.32-0.93-3.396-1.907
					C387.936,99.831,387.651,97.836,389.381,95.934z M394.47,97.802c-1.401-1.274-2.553-1.417-3.45-0.427
					c-0.951,1.047-0.817,2.125,0.404,3.236c1.117,1.015,2.223,1.582,3.313,1.703l1.967-2.164
					C396.168,99.451,395.423,98.669,394.47,97.802z"/>
				<path fill="#FFFFFF" d="M396.527,107.822l8.768-8.744l1.04,1.043l-0.844,1.392c1.513,0.024,2.808,0.576,3.884,1.656l-1.286,1.282
					c-1.043-1.045-2.261-1.525-3.649-1.438l-6.37,6.354L396.527,107.822z"/>
				<path fill="#FFFFFF" d="M409.831,103.569l1.595,1.754l-4.803,9.095l9.592-3.821l1.556,1.711l-12.895,4.765
					c-2.277,0.838-4.235,0.769-5.875-0.207l0.58-1.657c1.379,0.616,2.786,0.698,4.222,0.243L409.831,103.569z"/>
			</g>
		</g>
	
		<g id="svg-best-in-class-health-safety-environment" class="slice">
			<g id="svg-bg-health-safety-environment">
				<path fill="#262262" stroke="#FFFFFF" stroke-width="2.3" stroke-miterlimit="10" d="M466.979,132.102l-117.68,67.914
					c9.189,15.859,14.479,34.257,14.479,53.899c0,19.641-5.289,38.041-14.479,53.902l117.68,67.913
					C511.785,298.121,511.785,209.708,466.979,132.102z"/>
			</g>
			<g id="svg-text-best-in-class">
				<path fill="#FFFFFF" d="M470.618,191.225l0.572,2.105l-4.893,1.331c0.625,0.799,1.078,1.715,1.359,2.747
					c1.027,3.778-0.371,6.186-4.194,7.227c-4.142,1.126-6.752-0.294-7.832-4.261c-0.467-1.714-0.731-3.333-0.795-4.854L470.618,191.225
					z M457.001,197.189c-0.032,0.75,0.085,1.618,0.354,2.605c0.722,2.655,2.597,3.57,5.624,2.747c2.557-0.695,3.508-2.245,2.853-4.65
					c-0.295-1.092-0.763-2-1.401-2.724L457.001,197.189z"/>
				<path fill="#FFFFFF" d="M465.172,217.071l-1.673-8.167c-2.479,0.508-3.399,2.325-2.759,5.452c0.219,1.07,0.555,2.117,1.004,3.14
					l-1.734,0.354c-0.449-1.022-0.831-2.301-1.144-3.833c-0.839-4.089,0.811-6.558,4.947-7.405c3.95-0.809,6.322,0.723,7.115,4.598
					C471.689,214.922,469.77,216.875,465.172,217.071z M465.279,208.539l1.272,6.214c2.148-0.328,3.014-1.507,2.597-3.54
					C468.724,209.133,467.433,208.242,465.279,208.539z"/>
				<path fill="#FFFFFF" d="M460.747,220.756l1.867-0.268c-0.271,1.43-0.302,2.879-0.09,4.35c0.28,1.954,1.005,2.846,2.17,2.679
					c1.089-0.156,1.543-0.876,1.359-2.161l-0.285-1.984c-0.369-2.568,0.653-4.025,3.066-4.371c2.334-0.335,3.746,1.198,4.233,4.598
					c0.21,1.463,0.219,2.904,0.025,4.321l-1.869,0.268c0.271-1.429,0.303-2.875,0.093-4.338c-0.293-2.039-1.021-2.974-2.189-2.807
					c-1.09,0.157-1.548,0.838-1.375,2.044l0.285,1.984c0.391,2.724-0.621,4.259-3.031,4.604c-2.336,0.334-3.747-1.194-4.232-4.587
					C460.562,223.618,460.553,222.175,460.747,220.756z"/>
				<path fill="#FFFFFF" d="M476.027,231.066l0.132,1.362l-1.949,0.663l0.278,2.864l-1.761,0.17l-0.245-2.523l-7.077,0.687
					c-1.149,0.111-1.677,0.664-1.581,1.658l0.099,1.033l-1.76,0.171l-0.155-1.597c-0.201-2.066,0.807-3.206,3.022-3.421
					L476.027,231.066z"/>
				<path fill="#FFFFFF" d="M475.102,246.262l-12.371,0.522l-0.092-2.18l12.371-0.522L475.102,246.262z M479.579,246.072l-1.768,0.075
					l-0.092-2.18l1.768-0.074L479.579,246.072z"/>
				<path fill="#FFFFFF" d="M462.872,249.651l12.381,0.011l0,1.474l-1.58,0.388c1.052,1.502,1.578,3.012,1.576,4.529
					c-0.002,2.854-1.54,4.279-4.615,4.276l-7.77-0.006l0.002-2.182l7.805,0.006c1.84,0.002,2.76-0.914,2.762-2.746
					c0.001-1.25-0.521-2.437-1.565-3.562l-8.997-0.007L462.872,249.651z"/>
				<path fill="#FFFFFF" d="M461.986,277.688c-0.146-1.039-0.168-2.145-0.064-3.32c0.389-4.464,2.719-6.509,6.986-6.137
					c3.955,0.346,5.738,2.75,5.347,7.215c-0.102,1.174-0.314,2.261-0.64,3.258l-1.76-0.154c0.324-0.998,0.53-2.005,0.619-3.023
					c0.276-3.172-0.977-4.88-3.755-5.123c-3.094-0.27-4.779,1.181-5.056,4.353c-0.089,1.018-0.061,2.046,0.086,3.085L461.986,277.688z"
					/>
				<path fill="#FFFFFF" d="M477.79,283.932l-16.727-2.139l0.277-2.164l16.726,2.139L477.79,283.932z"/>
				<path fill="#FFFFFF" d="M464.621,284.718c2.502,0.431,3.469,2.297,2.9,5.597c-0.209,1.217-0.469,2.265-0.781,3.145l1.15,0.198
					c1.325,0.229,2.177-0.753,2.554-2.946c0.215-1.255,0.244-2.575,0.083-3.958l1.743,0.3c0.161,1.383,0.132,2.703-0.083,3.958
					c-0.624,3.625-2.239,5.214-4.843,4.766l-8.296-1.43l0.188-1.092l1.008-0.712c-0.391-1.16-0.463-2.457-0.215-3.89
					C460.557,285.594,462.087,284.282,464.621,284.718z M465.778,290.015c0.322-1.866-0.175-2.914-1.492-3.14
					c-1.395-0.241-2.233,0.453-2.513,2.08c-0.257,1.488-0.142,2.724,0.342,3.708l2.882,0.497
					C465.298,292.334,465.56,291.286,465.778,290.015z"/>
				<path fill="#FFFFFF" d="M459.047,297.246l1.836,0.431c-0.773,1.231-1.33,2.571-1.668,4.018c-0.452,1.921-0.102,3.017,1.047,3.286
					c1.07,0.25,1.754-0.255,2.051-1.518l0.458-1.952c0.592-2.525,2.074-3.511,4.446-2.954c2.296,0.538,3.053,2.48,2.268,5.825
					c-0.336,1.439-0.854,2.783-1.55,4.033l-1.837-0.43c0.774-1.232,1.329-2.568,1.665-4.006c0.471-2.005,0.132-3.142-1.017-3.411
					c-1.071-0.252-1.747,0.216-2.023,1.402l-0.458,1.952c-0.627,2.679-2.129,3.74-4.501,3.183c-2.297-0.538-3.053-2.476-2.271-5.813
					C457.832,299.843,458.35,298.496,459.047,297.246z"/>
				<path fill="#FFFFFF" d="M456.3,308.6l1.81,0.535c-0.843,1.185-1.475,2.491-1.896,3.916c-0.561,1.892-0.273,3.005,0.857,3.34
					c1.055,0.313,1.767-0.153,2.136-1.397l0.568-1.922c0.735-2.489,2.271-3.386,4.608-2.695c2.262,0.669,2.906,2.651,1.932,5.945
					c-0.42,1.417-1.013,2.73-1.779,3.938l-1.811-0.535c0.843-1.186,1.473-2.487,1.893-3.904c0.585-1.976,0.311-3.13-0.82-3.465
					c-1.056-0.312-1.754,0.116-2.101,1.285l-0.568,1.922c-0.78,2.639-2.341,3.612-4.677,2.921c-2.262-0.669-2.907-2.647-1.935-5.935
					C454.939,311.124,455.534,309.808,456.3,308.6z"/>
			</g>
			<g id="svg-text-health-safety">
				<path fill="#FFFFFF" d="M429.806,187.123l15.867-5.705l0.739,2.053l-5.482,1.971c1.28,0.91,2.176,2.079,2.689,3.506
					c0.966,2.686,0.002,4.548-2.891,5.588l-7.312,2.628l-0.739-2.053l7.347-2.641c1.73-0.622,2.287-1.795,1.666-3.519
					c-0.422-1.176-1.316-2.117-2.68-2.821l-8.467,3.043L429.806,187.123z"/>
				<path fill="#FFFFFF" d="M442.348,208.098l-2.245-8.029c-2.437,0.682-3.228,2.559-2.367,5.633c0.294,1.053,0.702,2.074,1.223,3.062
					l-1.703,0.477c-0.522-0.989-0.992-2.237-1.414-3.744c-1.124-4.02,0.347-6.598,4.413-7.735c3.883-1.086,6.358,0.276,7.422,4.084
					C448.697,205.495,446.921,207.579,442.348,208.098z M441.853,199.581l1.708,6.109c2.119-0.478,2.9-1.716,2.34-3.715
					C445.329,199.931,443.981,199.132,441.853,199.581z"/>
				<path fill="#FFFFFF" d="M441.323,211.063c2.488-0.511,4.07,0.875,4.742,4.156c0.248,1.209,0.386,2.279,0.417,3.212l1.144-0.234
					c1.316-0.27,1.751-1.495,1.305-3.674c-0.255-1.247-0.71-2.486-1.364-3.717l1.733-0.354c0.654,1.23,1.109,2.469,1.365,3.716
					c0.739,3.604-0.185,5.671-2.773,6.202l-8.248,1.69l-0.223-1.085l0.68-1.03c-0.785-0.938-1.326-2.12-1.618-3.544
					C437.859,213.357,438.807,211.579,441.323,211.063z M444.332,215.574c-0.38-1.856-1.226-2.65-2.535-2.381
					c-1.386,0.284-1.913,1.234-1.581,2.852c0.303,1.479,0.858,2.588,1.669,3.329l2.864-0.587
					C444.73,217.908,444.59,216.837,444.332,215.574z"/>
				<path fill="#FFFFFF" d="M457.107,224.804l-16.669,2.554l-0.331-2.156l16.668-2.555L457.107,224.804z"/>
				<path fill="#FFFFFF" d="M455.183,228.925l0.16,1.358l-1.937,0.703l0.337,2.857l-1.757,0.207l-0.296-2.518l-7.063,0.831
					c-1.147,0.135-1.663,0.699-1.546,1.69l0.122,1.031l-1.756,0.207l-0.188-1.593c-0.241-2.061,0.742-3.222,2.951-3.482
					L455.183,228.925z"/>
				<path fill="#FFFFFF" d="M441.744,237.789l16.832-1.016l0.132,2.177l-5.815,0.351c0.973,1.233,1.504,2.606,1.595,4.122
					c0.173,2.848-1.275,4.365-4.344,4.55l-7.756,0.469l-0.131-2.178l7.792-0.47c1.835-0.111,2.699-1.081,2.589-2.909
					c-0.076-1.248-0.67-2.401-1.781-3.46l-8.98,0.542L441.744,237.789z"/>
				<path fill="#FFFFFF" d="M444.594,254.958l-5.142-1.731l-0.015-2.182l5.142,1.731L444.594,254.958z"/>
				<path fill="#FFFFFF" d="M442.848,263.015l1.882,0.131c-0.567,1.339-0.9,2.75-1.004,4.233c-0.137,1.968,0.383,2.994,1.558,3.076
					c1.098,0.076,1.693-0.533,1.783-1.827l0.139-2c0.179-2.588,1.485-3.797,3.916-3.628c2.354,0.164,3.411,1.959,3.171,5.386
					c-0.103,1.476-0.398,2.885-0.886,4.23l-1.882-0.131c0.567-1.34,0.901-2.747,1.003-4.221c0.144-2.056-0.374-3.123-1.549-3.206
					c-1.098-0.077-1.69,0.493-1.775,1.709l-0.14,2c-0.189,2.745-1.501,4.033-3.932,3.863c-2.352-0.164-3.41-1.955-3.172-5.375
					C442.064,265.773,442.361,264.36,442.848,263.015z"/>
				<path fill="#FFFFFF" d="M445.25,274.773c2.516,0.345,3.545,2.177,3.09,5.495c-0.167,1.223-0.393,2.278-0.673,3.169l1.157,0.158
					c1.332,0.183,2.148-0.827,2.451-3.032c0.173-1.261,0.156-2.581-0.052-3.958l1.753,0.241c0.207,1.377,0.224,2.697,0.052,3.959
					c-0.5,3.645-2.059,5.288-4.676,4.928l-8.341-1.146l0.151-1.098l0.982-0.746c-0.43-1.146-0.546-2.439-0.348-3.88
					C441.219,275.787,442.703,274.423,445.25,274.773z M446.587,280.027c0.259-1.876-0.275-2.906-1.599-3.088
					c-1.403-0.192-2.216,0.529-2.44,2.165c-0.205,1.495-0.048,2.727,0.469,3.694l2.897,0.398
					C446.188,282.36,446.413,281.304,446.587,280.027z"/>
				<path fill="#FFFFFF" d="M439.372,287.647l12.797,2.511c2.939,0.577,4.113,2.376,3.519,5.401c-0.194,0.995-0.526,1.867-0.994,2.616
					l-1.737-0.34c0.459-0.703,0.792-1.58,0.998-2.628c0.312-1.589-0.2-2.514-1.535-2.776l-1.261-0.248l-0.716,3.645l-1.734-0.34
					l0.715-3.646l-10.426-2.045L439.372,287.647z"/>
				<path fill="#FFFFFF" d="M440.777,306.585l2.071-8.075c-2.452-0.629-4.075,0.602-4.868,3.694c-0.271,1.059-0.429,2.146-0.472,3.263
					l-1.713-0.439c0.042-1.118,0.259-2.434,0.647-3.949c1.038-4.043,3.6-5.541,7.69-4.492c3.906,1.003,5.368,3.418,4.385,7.249
					C447.578,307.506,444.997,308.422,440.777,306.585z M444.607,298.961l-1.577,6.145c2.076,0.646,3.371-0.037,3.885-2.047
					C447.443,301.003,446.674,299.637,444.607,298.961z"/>
				<path fill="#FFFFFF" d="M448.192,312.418l-0.412,1.304l-2.054-0.154l-0.867,2.743l-1.686-0.533l0.764-2.417l-6.778-2.146
					c-1.102-0.348-1.805-0.046-2.104,0.905l-0.314,0.989l-1.687-0.533l0.484-1.529c0.625-1.979,2-2.632,4.121-1.961L448.192,312.418z"
					/>
				<path fill="#FFFFFF" d="M444.366,317.998l-0.834,2.219l-10.283-0.121l7.779,6.789l-0.813,2.164l-10.125-9.296
					c-1.784-1.644-2.617-3.418-2.498-5.322l1.74-0.24c0.081,1.508,0.65,2.797,1.709,3.867L444.366,317.998z"/>
			</g>
			<g id="svg-text-and-environment">
				<path fill="#FFFFFF" d="M415.306,180.635c0.073-1.656,0.965-2.815,2.672-3.479c2.821-1.096,4.957,0.225,6.409,3.963
					c0.527,1.355,0.855,2.746,0.987,4.17l-1.648,0.641c-0.132-1.425-0.443-2.768-0.931-4.029c-0.962-2.477-2.286-3.388-3.972-2.733
					c-1.832,0.711-2.385,2.001-1.66,3.87l1.656,4.266l1.561-0.607l0.269,0.693l-1.126,1.728l0.777,2l-1.648,0.64l-0.692-1.781
					l-1.76,0.683c-3.611,1.403-6.155,0.206-7.629-3.59c-1.409-3.627-0.659-6.006,2.251-7.136
					C412.632,179.232,414.126,179.465,415.306,180.635z M415.522,183.7c-0.73-1.883-2.017-2.467-3.856-1.753
					c-1.825,0.708-2.308,2.166-1.452,4.371c0.974,2.506,2.713,3.272,5.219,2.299l1.737-0.674L415.522,183.7z"/>
				<path fill="#FFFFFF" d="M421.453,209.078l-2.188-8.044c-2.442,0.664-3.245,2.536-2.409,5.616c0.289,1.055,0.688,2.078,1.202,3.071
					l-1.707,0.463c-0.514-0.992-0.976-2.243-1.386-3.753c-1.097-4.028,0.393-6.596,4.465-7.704c3.892-1.058,6.357,0.321,7.395,4.137
					C427.82,206.519,426.029,208.591,421.453,209.078z M421.017,200.557l1.665,6.122c2.124-0.463,2.911-1.696,2.367-3.699
					C424.492,200.931,423.148,200.124,421.017,200.557z"/>
				<path fill="#FFFFFF" d="M416.75,213.353l12.151-2.376l0.283,1.447l-1.477,0.685c1.322,1.271,2.13,2.652,2.42,4.141
					c0.547,2.801-0.688,4.496-3.704,5.086l-7.627,1.49l-0.418-2.141l7.662-1.498c1.805-0.353,2.532-1.428,2.181-3.226
					c-0.24-1.227-0.982-2.291-2.222-3.194l-8.831,1.726L416.75,213.353z"/>
				<path fill="#FFFFFF" d="M431.3,223.527l0.295,2.339l-9.188,4.732l10.069,2.289l0.293,2.339l-12.913-3.452l-0.252-2.013
					L431.3,223.527z"/>
				<path fill="#FFFFFF" d="M433.039,239.419l-12.343,0.98l-0.171-2.174l12.342-0.98L433.039,239.419z M437.506,239.065l-1.764,0.14
					l-0.172-2.174l1.763-0.14L437.506,239.065z"/>
				<path fill="#FFFFFF" d="M420.918,243.655l12.37-0.543l0.063,1.473l-1.561,0.458c1.1,1.038,1.683,2.318,1.75,3.842l-1.814,0.08
					c-0.065-1.477-0.64-2.651-1.725-3.524l-8.987,0.395L420.918,243.655z"/>
				<path fill="#FFFFFF" d="M427.348,250.874c4.127-0.014,6.198,1.945,6.211,5.875c0.014,3.931-2.044,5.902-6.172,5.917
					c-4.12,0.013-6.185-1.945-6.198-5.876C421.177,252.876,423.229,250.903,427.348,250.874z M422.946,256.785
					c0.008,2.476,1.502,3.709,4.482,3.7c2.916-0.01,4.371-1.252,4.362-3.729c-0.008-2.476-1.471-3.71-4.387-3.7
					C424.424,253.065,422.938,254.308,422.946,256.785z"/>
				<path fill="#FFFFFF" d="M420.968,264.74l12.335,1.058l-0.126,1.468l-1.606,0.253c0.922,1.586,1.317,3.135,1.187,4.646
					c-0.244,2.843-1.897,4.133-4.96,3.871l-7.741-0.664l0.186-2.173l7.779,0.667c1.832,0.157,2.828-0.677,2.984-2.502
					c0.107-1.245-0.313-2.473-1.259-3.682l-8.963-0.768L420.968,264.74z"/>
				<path fill="#FFFFFF" d="M419.845,278.217l12.186,2.191l-0.26,1.451l-1.597,0.085c0.77,1.583,1.032,3.064,0.782,4.441
					c-0.274,1.532-1.026,2.519-2.256,2.961c0.834,1.755,1.129,3.314,0.884,4.676c-0.462,2.568-2.236,3.575-5.324,3.02l-7.556-1.358
					l0.387-2.147l7.671,1.38c1.818,0.327,2.865-0.276,3.141-1.808c0.207-1.145-0.127-2.311-1-3.499l-8.821-1.586l0.387-2.147
					l7.636,1.374c1.841,0.332,2.899-0.262,3.171-1.778c0.218-1.207-0.116-2.381-0.996-3.522l-8.821-1.586L419.845,278.217z"/>
				<path fill="#FFFFFF" d="M418.617,309.508l2.214-8.038c-2.439-0.673-4.084,0.529-4.933,3.607c-0.29,1.053-0.467,2.138-0.53,3.254
					l-1.705-0.47c0.063-1.117,0.303-2.428,0.718-3.937c1.109-4.024,3.699-5.475,7.769-4.353c3.887,1.071,5.306,3.513,4.255,7.325
					C425.4,310.55,422.804,311.42,418.617,309.508z M422.583,301.954l-1.686,6.116c2.063,0.682,3.37,0.023,3.921-1.978
					C425.383,304.046,424.637,302.666,422.583,301.954z"/>
				<path fill="#FFFFFF" d="M412.39,310.797l11.665,4.147l-0.493,1.389l-1.619-0.164c0.49,1.768,0.481,3.367-0.028,4.796
					c-0.956,2.688-2.881,3.519-5.778,2.489l-7.323-2.603l0.731-2.056l7.355,2.615c1.734,0.616,2.907,0.061,3.521-1.665
					c0.42-1.177,0.324-2.472-0.285-3.88l-8.477-3.014L412.39,310.797z"/>
				<path fill="#FFFFFF" d="M420.858,329.309l-0.532,1.26l-2.031-0.345l-1.118,2.651l-1.629-0.688l0.984-2.336l-6.552-2.763
					c-1.064-0.449-1.789-0.213-2.179,0.707l-0.403,0.956l-1.63-0.688l0.623-1.478c0.808-1.912,2.236-2.437,4.285-1.572L420.858,329.309
					z"/>
			</g>
		</g>
	
		<g id="svg-top-quartile-shareholder-returns" class="slice">
			<g id="svg-bg-top-quartile-shareholder-returns">
				<path fill="#67923D" stroke="#FFFFFF" stroke-width="2.3" stroke-miterlimit="10" d="M255.943,361.729v135.814
					c89.609,0,166.23-44.208,211.035-121.813l-117.68-67.913C330.66,340.035,295.846,361.729,255.943,361.729z"/>
			</g>
			<g id="svg-text-top-quartile">
				<path fill="#FFFFFF" d="M302.144,430.913l1.203-0.327l0.894,1.648l2.529-0.688l0.423,1.554l-2.229,0.607l1.703,6.25
					c0.277,1.015,0.854,1.404,1.731,1.164l0.912-0.248l0.423,1.555l-1.41,0.384c-1.824,0.497-3.002-0.232-3.535-2.189L302.144,430.913z
					"/>
				<path fill="#FFFFFF" d="M310.1,436.513c-1.173-3.573-0.059-5.917,3.344-7.035c3.402-1.116,5.689,0.111,6.862,3.684
					c1.171,3.565,0.055,5.905-3.348,7.022C313.57,441.297,311.284,440.074,310.1,436.513z M316.459,438.663
					c2.144-0.703,2.792-2.345,1.945-4.924c-0.829-2.523-2.315-3.434-4.458-2.73c-2.143,0.704-2.8,2.318-1.971,4.843
					C312.821,438.43,314.316,439.367,316.459,438.663z"/>
				<path fill="#FFFFFF" d="M320.614,427.516c1.273-0.846,2.65-1.567,4.131-2.165c3.354-1.352,5.699-0.372,7.036,2.943
					c1.476,3.659,0.527,6.169-2.847,7.529c-0.837,0.338-1.714,0.499-2.631,0.483l1.728,4.284l-1.843,0.743L320.614,427.516z
					 M325.644,434.672c0.869,0.067,1.749-0.078,2.639-0.438c2.171-0.875,2.73-2.619,1.678-5.229c-0.919-2.277-2.458-2.981-4.616-2.11
					c-0.93,0.375-1.712,0.782-2.345,1.223L325.644,434.672z"/>
				<path fill="#FFFFFF" d="M351.579,429.713l-1.768,0.908l-2.112-4.107c-0.588,0.705-1.314,1.281-2.181,1.726
					c-3.171,1.631-5.626,0.756-7.366-2.627c-1.7-3.304-0.878-5.817,2.465-7.536c1.357-0.698,2.739-1.236,4.147-1.613L351.579,429.713z
					 M343.661,418.661c-0.684,0.159-1.472,0.467-2.363,0.925c-2.133,1.098-2.606,2.802-1.417,5.113
					c1.222,2.376,2.842,3.045,4.861,2.006c0.917-0.472,1.634-1.058,2.151-1.758L343.661,418.661z"/>
				<path fill="#FFFFFF" d="M355.058,409.834l5.84,9.651l-1.168,0.706l-1.039-1.053c-0.673,1.53-1.602,2.652-2.783,3.368
					c-2.219,1.342-4.053,0.814-5.502-1.581l-3.665-6.057l1.701-1.028l3.681,6.084c0.868,1.434,2.012,1.721,3.434,0.86
					c0.974-0.589,1.656-1.559,2.045-2.908l-4.243-7.012L355.058,409.834z"/>
				<path fill="#FFFFFF" d="M361.213,415.14c-1.312-1.905-0.712-3.723,1.801-5.454c0.926-0.638,1.775-1.134,2.546-1.492l-0.604-0.876
					c-0.695-1.008-1.876-0.938-3.546,0.212c-0.955,0.658-1.833,1.479-2.632,2.465l-0.914-1.328c0.799-0.986,1.677-1.807,2.633-2.464
					c2.76-1.901,4.822-1.862,6.187,0.121l4.35,6.315l-0.832,0.574l-1.105-0.205c-0.508,0.994-1.307,1.865-2.398,2.617
					C364.37,417.231,362.542,417.069,361.213,415.14z M363.929,411.013c-1.422,0.979-1.787,1.971-1.097,2.973
					c0.731,1.062,1.715,1.167,2.954,0.313c1.133-0.78,1.865-1.641,2.199-2.584l-1.512-2.194
					C365.744,409.85,364.896,410.349,363.929,411.013z"/>
				<path fill="#FFFFFF" d="M373.643,410.672l-6.852-8.96l1.067-0.816l1.156,0.929c0.203-1.363,0.855-2.465,1.959-3.31l1.005,1.314
					c-1.07,0.817-1.648,1.859-1.735,3.125l4.978,6.511L373.643,410.672z"/>
				<path fill="#FFFFFF" d="M371.054,396.09l0.962-0.792l1.492,1.137l2.023-1.667l1.024,1.244l-1.782,1.469l4.119,4.999
					c0.669,0.813,1.354,0.929,2.056,0.351l0.73-0.601l1.025,1.244l-1.127,0.928c-1.459,1.203-2.833,1.021-4.123-0.543L371.054,396.09z"
					/>
				<path fill="#FFFFFF" d="M376.116,388.84l1.063,1.211l-1.493,1.312l-1.063-1.211L376.116,388.84z M378.81,391.907l7.441,8.476
					l-1.493,1.312l-7.441-8.476L378.81,391.907z"/>
				<path fill="#FFFFFF" d="M379.695,385.575l10.443,11.265l-1.458,1.35l-10.443-11.265L379.695,385.575z"/>
				<path fill="#FFFFFF" d="M395.275,384.625l-5.333,5.407c1.642,1.619,3.484,1.395,5.525-0.677c0.699-0.708,1.321-1.493,1.868-2.352
					l1.147,1.13c-0.546,0.86-1.32,1.796-2.32,2.812c-2.67,2.707-5.375,2.711-8.112,0.011c-2.616-2.58-2.66-5.152-0.13-7.717
					C390.344,380.783,392.796,381.244,395.275,384.625z M388.765,388.871l4.058-4.115c-1.337-1.46-2.669-1.516-3.997-0.17
					C387.469,385.963,387.448,387.392,388.765,388.871z"/>
			</g>
			<g id="svg-text-shareholder-returns">
				<path fill="#FFFFFF" d="M268.521,469.713l-0.13-1.713c1.282,0.333,2.598,0.449,3.948,0.347c1.792-0.136,2.648-0.739,2.566-1.81
					c-0.076-1-0.703-1.455-1.881-1.366l-1.82,0.138c-2.357,0.178-3.619-0.838-3.787-3.052c-0.163-2.143,1.316-3.332,4.437-3.568
					c1.343-0.101,2.652-0.021,3.929,0.24l0.131,1.714c-1.283-0.333-2.595-0.45-3.938-0.349c-1.871,0.143-2.766,0.75-2.685,1.82
					c0.076,1,0.667,1.457,1.774,1.374l1.821-0.139c2.5-0.188,3.833,0.823,4.001,3.037c0.162,2.143-1.313,3.331-4.427,3.567
					C271.11,470.056,269.797,469.976,268.521,469.713z"/>
				<path fill="#FFFFFF" d="M280.667,469.232l-2.081-15.219l1.969-0.27l0.719,5.258c1.053-0.968,2.264-1.545,3.634-1.732
					c2.575-0.353,4.053,0.859,4.433,3.632l0.959,7.015l-1.969,0.269l-0.964-7.046c-0.227-1.661-1.167-2.377-2.82-2.152
					c-1.128,0.154-2.135,0.773-3.021,1.856l1.111,8.12L280.667,469.232z"/>
				<path fill="#FFFFFF" d="M293.142,463.881c-0.456-2.268,0.812-3.703,3.803-4.303c1.102-0.223,2.078-0.345,2.928-0.371l-0.209-1.042
					c-0.242-1.2-1.356-1.601-3.342-1.201c-1.138,0.228-2.268,0.638-3.391,1.229l-0.318-1.58c1.123-0.592,2.253-1.001,3.391-1.229
					c3.286-0.661,5.167,0.188,5.641,2.547l1.513,7.52l-0.99,0.199l-0.936-0.623c-0.858,0.713-1.936,1.2-3.235,1.461
					C295.221,467.045,293.604,466.177,293.142,463.881z M297.262,461.156c-1.692,0.341-2.418,1.107-2.178,2.301
					c0.254,1.263,1.118,1.747,2.593,1.451c1.348-0.271,2.361-0.774,3.038-1.511l-0.525-2.611
					C299.389,460.802,298.413,460.924,297.262,461.156z"/>
				<path fill="#FFFFFF" d="M306.885,464.545l-2.752-10.938l1.302-0.328l0.695,1.31c0.725-1.172,1.76-1.928,3.107-2.267l0.404,1.604
					c-1.306,0.329-2.249,1.057-2.829,2.185l2,7.948L306.885,464.545z"/>
				<path fill="#FFFFFF" d="M321.665,455.125l-7.268,2.205c0.669,2.206,2.394,2.888,5.177,2.043c0.952-0.289,1.874-0.68,2.765-1.174
					l0.468,1.542c-0.891,0.495-2.018,0.948-3.382,1.361c-3.64,1.103-6.017-0.186-7.132-3.866c-1.066-3.516,0.125-5.796,3.572-6.841
					C319.168,449.394,321.102,450.97,321.665,455.125z M313.917,455.745l5.531-1.676c-0.478-1.921-1.621-2.607-3.431-2.058
					C314.167,452.57,313.468,453.816,313.917,455.745z"/>
				<path fill="#FFFFFF" d="M326.948,458.698l-5.364-14.395l1.862-0.693l1.853,4.973c0.815-1.176,1.871-2.004,3.166-2.487
					c2.436-0.908,4.143-0.05,5.12,2.573l2.472,6.634l-1.861,0.694l-2.483-6.664c-0.586-1.571-1.66-2.064-3.224-1.482
					c-1.067,0.397-1.914,1.222-2.541,2.472l2.862,7.68L326.948,458.698z"/>
				<path fill="#FFFFFF" d="M337.13,448.79c-1.535-3.431-0.669-5.878,2.6-7.341c3.269-1.462,5.67-0.478,7.206,2.954
					c1.533,3.425,0.665,5.869-2.603,7.332C341.076,453.19,338.676,452.209,337.13,448.79z M343.678,450.273
					c2.06-0.921,2.534-2.622,1.426-5.099c-1.085-2.426-2.657-3.177-4.716-2.255c-2.059,0.921-2.546,2.594-1.461,5.018
					C340.035,450.416,341.619,451.195,343.678,450.273z"/>
				<path fill="#FFFFFF" d="M346.986,433.469l6.882,13.732l-1.777,0.891l-6.882-13.733L346.986,433.469z"/>
				<path fill="#FFFFFF" d="M365.115,440.381c-0.98,1.054-2.35,2.064-4.107,3.03c-2.942,1.621-5.356,0.716-7.241-2.709
					c-1.74-3.163-1.047-5.604,2.078-7.323c0.853-0.469,1.745-0.755,2.677-0.859l-2.226-4.047l1.741-0.958L365.115,440.381z
					 M359.371,434.063c-0.889,0.047-1.785,0.319-2.689,0.817c-1.988,1.094-2.401,2.698-1.238,4.813c1.378,2.503,3.061,3.208,5.05,2.114
					c0.903-0.497,1.639-1.062,2.208-1.693L359.371,434.063z"/>
				<path fill="#FFFFFF" d="M373.901,429.676l-6.402,4.086c1.241,1.944,3.086,2.134,5.537,0.57c0.839-0.536,1.62-1.162,2.344-1.878
					l0.867,1.358c-0.724,0.716-1.686,1.458-2.888,2.224c-3.205,2.046-5.842,1.449-7.911-1.794c-1.977-3.097-1.447-5.613,1.59-7.551
					C369.948,424.833,372.235,425.829,373.901,429.676z M366.609,432.367l4.872-3.109c-0.979-1.721-2.266-2.071-3.859-1.054
					C365.992,429.244,365.654,430.633,366.609,432.367z"/>
				<path fill="#FFFFFF" d="M379.681,431.827l-6.51-9.211l1.097-0.774l1.12,0.971c0.253-1.354,0.947-2.432,2.082-3.233l0.955,1.35
					c-1.1,0.777-1.717,1.797-1.851,3.058l4.731,6.693L379.681,431.827z"/>
				<path fill="#FFFFFF" d="M390.024,424.195l-7.044-8.809l1.049-0.839l1.175,0.902c0.173-1.366,0.802-2.483,1.887-3.351l1.033,1.291
					c-1.051,0.842-1.606,1.896-1.667,3.163l5.119,6.402L390.024,424.195z"/>
				<path fill="#FFFFFF" d="M399.559,409.493l-5.698,5.021c1.524,1.73,3.378,1.635,5.56-0.288c0.747-0.658,1.423-1.397,2.027-2.216
					l1.065,1.209c-0.605,0.819-1.442,1.699-2.512,2.642c-2.853,2.514-5.551,2.328-8.093-0.557c-2.429-2.757-2.292-5.326,0.412-7.708
					C394.909,405.315,397.322,405.947,399.559,409.493z M392.767,413.272l4.337-3.82c-1.231-1.55-2.556-1.699-3.975-0.449
					C391.678,410.281,391.557,411.704,392.767,413.272z"/>
				<path fill="#FFFFFF" d="M396.482,401.313l0.896-0.867l1.579,1.013l1.883-1.824l1.121,1.158l-1.659,1.606l4.506,4.653
					c0.733,0.756,1.425,0.817,2.079,0.185l0.679-0.659l1.121,1.159l-1.05,1.016c-1.357,1.316-2.742,1.246-4.152-0.21L396.482,401.313z"
					/>
				<path fill="#FFFFFF" d="M409.447,390.625l8.235,7.706l-0.932,0.997l-1.286-0.733c-0.234,1.656-0.823,2.986-1.768,3.996
					c-1.771,1.893-3.679,1.882-5.724-0.03l-5.169-4.837l1.357-1.451l5.192,4.858c1.225,1.146,2.403,1.11,3.539-0.102
					c0.778-0.832,1.171-1.949,1.181-3.353l-5.985-5.6L409.447,390.625z"/>
				<path fill="#FFFFFF" d="M420.2,395.394l-8.61-7.286l0.867-1.025l1.328,0.66c-0.095-1.375,0.308-2.592,1.205-3.653l1.263,1.069
					c-0.87,1.028-1.211,2.169-1.025,3.424l6.257,5.295L420.2,395.394z"/>
				<path fill="#FFFFFF" d="M425.273,389.359l-8.963-6.847l0.814-1.068l1.359,0.593c0.068-1.669,0.521-3.053,1.361-4.151
					c1.578-2.066,3.479-2.249,5.704-0.549l5.625,4.298l-1.207,1.58l-5.65-4.317c-1.332-1.018-2.504-0.863-3.518,0.462
					c-0.69,0.906-0.968,2.055-0.833,3.447l6.513,4.976L425.273,389.359z"/>
				<path fill="#FFFFFF" d="M433.108,377.975l-1.426-0.959c1.056-0.8,1.961-1.762,2.717-2.884c1.003-1.492,1.06-2.537,0.168-3.137
					c-0.832-0.56-1.578-0.35-2.237,0.631l-1.019,1.516c-1.318,1.962-2.9,2.321-4.742,1.083c-1.782-1.2-1.8-3.097-0.054-5.695
					c0.752-1.116,1.625-2.095,2.622-2.936l1.426,0.96c-1.056,0.8-1.96,1.758-2.711,2.875c-1.047,1.557-1.125,2.635-0.234,3.234
					c0.832,0.56,1.558,0.38,2.178-0.542l1.019-1.515c1.399-2.08,3.02-2.5,4.862-1.262c1.783,1.2,1.803,3.095,0.061,5.686
					C434.981,376.153,434.105,377.136,433.108,377.975z"/>
			</g>
		</g>
	
		<g id="svg-robust-portfolio" class="slice">
			<g id="svg-bg-robust-portfolio">
				<path fill="#9F2214" stroke="#FFFFFF" stroke-width="2.3" stroke-miterlimit="10" d="M162.586,307.817L44.957,375.73
					c44.805,77.604,121.375,121.813,210.986,121.813V361.729C216.041,361.729,181.229,340.035,162.586,307.817z"/>
			</g>
			<g id="svg-text-robust-portfolio">
				<path fill="#FFFFFF" d="M83.045,384.321l9.809-7.555l0.9,1.168l-1.015,1.272c1.496,0.217,2.71,0.93,3.64,2.138l-1.439,1.108
					c-0.902-1.171-2.047-1.802-3.436-1.893l-7.128,5.49L83.045,384.321z"/>
				<path fill="#FFFFFF" d="M92.315,386.251c3.135-2.685,5.98-2.534,8.538,0.451c2.557,2.986,2.268,5.821-0.866,8.505
					c-3.129,2.68-5.972,2.527-8.528-0.458C88.911,391.775,89.197,388.943,92.315,386.251z M92.792,393.606
					c1.612,1.881,3.548,1.852,5.812-0.086c2.216-1.897,2.517-3.787,0.906-5.667c-1.611-1.881-3.524-1.873-5.739,0.024
					C91.508,389.816,91.182,391.725,92.792,393.606z"/>
				<path fill="#FFFFFF" d="M109.552,389.826l1.528,1.559l-3.622,3.549c0.936,0.393,1.777,0.972,2.526,1.735
					c2.74,2.796,2.695,5.58-0.134,8.354c-3.066,3.004-6.038,3.038-8.916,0.101c-1.242-1.269-2.265-2.552-3.063-3.85L109.552,389.826z
					 M100.577,401.676c0.338,0.67,0.865,1.371,1.579,2.101c1.926,1.965,4.01,1.85,6.25-0.346c1.893-1.854,1.967-3.671,0.223-5.451
					c-0.792-0.809-1.643-1.373-2.551-1.693L100.577,401.676z"/>
				<path fill="#FFFFFF" d="M123.825,409.633l-8.244,9.238l-1.118-0.997l0.771-1.43c-1.822-0.214-3.298-0.825-4.431-1.836
					c-2.124-1.895-2.162-3.988-0.115-6.282l5.174-5.797l1.628,1.452l-5.197,5.825c-1.225,1.372-1.157,2.666,0.203,3.88
					c0.934,0.832,2.17,1.235,3.711,1.208l5.99-6.713L123.825,409.633z"/>
				<path fill="#FFFFFF" d="M118.882,420.83l1.166-1.484c0.791,1.221,1.77,2.29,2.938,3.208c1.552,1.219,2.692,1.365,3.42,0.438
					c0.68-0.866,0.509-1.699-0.51-2.5l-1.576-1.239c-2.041-1.603-2.308-3.362-0.804-5.279c1.458-1.854,3.537-1.721,6.238,0.401
					c1.162,0.913,2.163,1.949,3.001,3.107l-1.165,1.484c-0.791-1.221-1.768-2.288-2.929-3.201c-1.619-1.272-2.793-1.445-3.522-0.518
					c-0.68,0.865-0.541,1.674,0.418,2.427l1.576,1.238c2.164,1.7,2.492,3.508,0.987,5.424c-1.457,1.854-3.533,1.723-6.229-0.395
					C120.725,423.027,119.721,421.988,118.882,420.83z"/>
				<path fill="#FFFFFF" d="M136.742,417.157l1.113,0.794l-0.78,1.906l2.343,1.671l-1.027,1.439l-2.063-1.471l-4.13,5.789
					c-0.671,0.941-0.599,1.701,0.214,2.281l0.845,0.602l-1.026,1.441l-1.307-0.932c-1.689-1.205-1.889-2.713-0.597-4.524
					L136.742,417.157z"/>
				<path fill="#FFFFFF" d="M145.479,426.311c1.587,0.543,3.136,1.26,4.646,2.151c3.42,2.016,4.134,4.714,2.141,8.093
					c-2.2,3.731-5.021,4.582-8.461,2.553c-0.853-0.503-1.579-1.16-2.178-1.969l-2.576,4.367l-1.879-1.108L145.479,426.311z
					 M142.609,435.473c0.522,0.801,1.237,1.469,2.145,2.004c2.214,1.306,4.105,0.628,5.676-2.033c1.369-2.323,0.954-4.133-1.247-5.431
					c-0.948-0.56-1.825-0.967-2.632-1.224L142.609,435.473z"/>
				<path fill="#FFFFFF" d="M153.975,437.945c1.902-3.663,4.597-4.589,8.086-2.777c3.489,1.812,4.281,4.548,2.379,8.211
					c-1.898,3.656-4.592,4.577-8.081,2.767C152.886,444.342,152.091,441.608,153.975,437.945z M157.17,444.587
					c2.198,1.141,3.983,0.39,5.356-2.255c1.345-2.588,0.917-4.453-1.28-5.594c-2.198-1.141-3.97-0.417-5.313,2.171
					C154.56,441.553,154.973,443.446,157.17,444.587z"/>
				<path fill="#FFFFFF" d="M164.388,450.132l5.134-11.267l1.34,0.611l-0.301,1.6c1.424-0.508,2.831-0.447,4.218,0.186l-0.753,1.652
					c-1.344-0.612-2.652-0.634-3.923-0.064l-3.73,8.188L164.388,450.132z"/>
				<path fill="#FFFFFF" d="M177.109,440.059l1.265,0.522l-0.329,2.033l2.659,1.099l-0.676,1.634l-2.343-0.967l-2.714,6.572
					c-0.441,1.067-0.2,1.792,0.723,2.174l0.959,0.396l-0.675,1.635l-1.483-0.612c-1.918-0.792-2.453-2.216-1.603-4.273L177.109,440.059
					z"/>
				<path fill="#FFFFFF" d="M178.666,456.267l4.525-12.231c1.039-2.809,3.004-3.679,5.895-2.609c0.95,0.352,1.759,0.818,2.423,1.399
					l-0.612,1.659c-0.621-0.564-1.434-1.033-2.436-1.404c-1.519-0.562-2.513-0.205-2.986,1.07l-0.445,1.206l3.482,1.289l-0.613,1.659
					l-3.484-1.289l-3.686,9.964L178.666,456.267z"/>
				<path fill="#FFFFFF" d="M188.064,453.1c1.224-3.942,3.713-5.33,7.466-4.164c3.753,1.166,5.018,3.72,3.795,7.661
					c-1.222,3.935-3.71,5.318-7.464,4.152C188.123,459.588,186.857,457.038,188.064,453.1z M192.383,459.071
					c2.365,0.734,3.989-0.321,4.873-3.167c0.865-2.785,0.115-4.544-2.249-5.279c-2.366-0.734-3.98,0.291-4.845,3.077
					C189.277,456.546,190.018,458.337,192.383,459.071z"/>
				<path fill="#FFFFFF" d="M206.798,447.465l-4.245,16.319l-2.112-0.549l4.245-16.319L206.798,447.465z"/>
				<path fill="#FFFFFF" d="M210.739,453.022l-2.807,12.059l-2.125-0.495l2.808-12.059L210.739,453.022z M211.756,448.658l-0.402,1.723
					l-2.125-0.495l0.401-1.723L211.756,448.658z"/>
				<path fill="#FFFFFF" d="M212.005,459.722c0.747-4.06,3.054-5.732,6.918-5.021c3.866,0.712,5.425,3.097,4.678,7.157
					c-0.747,4.051-3.053,5.72-6.918,5.008C212.834,466.157,211.274,463.775,212.005,459.722z M217.002,465.138
					c2.436,0.449,3.923-0.792,4.462-3.723c0.528-2.868-0.425-4.527-2.86-4.975c-2.436-0.448-3.918,0.762-4.445,3.63
					C213.619,463,214.567,464.689,217.002,465.138z"/>
			</g>
		</g>
	
		<g id="svg-operational-excellence" class="slice">
			<g id="svg-bg-operational-excellence">
				<path fill="#895881" stroke="#FFFFFF" stroke-width="2.3" stroke-miterlimit="10" d="M148.131,253.915
					c0-19.643,5.277-38.04,14.455-53.899L44.957,132.102c-44.805,77.606-44.805,166.02,0,243.629l117.629-67.913
					C153.408,291.956,148.131,273.556,148.131,253.915z"/>
			</g>
			<g id="svg-text-operational">
				<path fill="#FFFFFF" d="M53.146,311.436c-4.002,1.008-6.483-0.393-7.444-4.205c-0.96-3.812,0.561-6.222,4.562-7.23
					c3.996-1.007,6.473,0.396,7.433,4.207C58.654,308.005,57.138,310.414,53.146,311.436z M55.994,304.638
					c-0.605-2.402-2.353-3.238-5.242-2.51c-2.828,0.713-3.939,2.27-3.334,4.671c0.605,2.401,2.322,3.246,5.149,2.533
					C55.457,308.604,56.599,307.039,55.994,304.638z"/>
				<path fill="#FFFFFF" d="M44.143,298.479c-0.628-1.555-1.101-3.195-1.418-4.919c-0.715-3.904,0.855-6.211,4.715-6.918
					c4.26-0.781,6.75,0.792,7.471,4.721c0.179,0.975,0.159,1.953-0.061,2.937l4.987-0.915l0.394,2.146L44.143,298.479z M52.947,294.646
					c0.263-0.919,0.299-1.897,0.109-2.934c-0.464-2.528-2.215-3.514-5.253-2.957c-2.652,0.486-3.749,1.986-3.288,4.499
					c0.199,1.083,0.465,2.013,0.8,2.791L52.947,294.646z"/>
				<path fill="#FFFFFF" d="M46.834,274.099l0.982,8.279c2.514-0.298,3.583-2.033,3.206-5.202c-0.128-1.085-0.374-2.156-0.737-3.213
					l1.756-0.208c0.363,1.058,0.636,2.363,0.821,3.916c0.492,4.146-1.358,6.467-5.55,6.964c-4.005,0.475-6.24-1.25-6.706-5.178
					C40.161,275.694,42.237,273.908,46.834,274.099z M46.014,282.591l-0.748-6.3c-2.168,0.146-3.128,1.25-2.885,3.312
					C42.631,281.71,43.842,282.707,46.014,282.591z"/>
				<path fill="#FFFFFF" d="M52.174,270.702l-12.352,0.86l-0.103-1.471l1.549-0.498c-1.126-1.009-1.742-2.274-1.848-3.795l1.812-0.126
					c0.103,1.475,0.708,2.634,1.814,3.479l8.976-0.625L52.174,270.702z"/>
				<path fill="#FFFFFF" d="M47.83,264.107c-2.539,0.054-3.844-1.594-3.915-4.941c-0.026-1.234,0.03-2.313,0.167-3.235l-1.167,0.024
					c-1.344,0.029-1.992,1.155-1.945,3.379c0.027,1.273,0.251,2.573,0.672,3.901l-1.768,0.037c-0.422-1.328-0.646-2.628-0.672-3.901
					c-0.078-3.679,1.203-5.546,3.844-5.602l8.418-0.178l0.023,1.108l-0.854,0.891c0.604,1.064,0.921,2.324,0.952,3.778
					C51.651,262.473,50.4,264.053,47.83,264.107z M45.683,259.129c0.04,1.894,0.729,2.826,2.064,2.798c1.415-0.03,2.105-0.87,2.07-2.52
					c-0.032-1.509-0.379-2.701-1.043-3.576l-2.924,0.062C45.712,256.761,45.656,257.84,45.683,259.129z"/>
				<path fill="#FFFFFF" d="M37.154,250.363l0.038-1.367l2.017-0.417l0.08-2.876l1.768,0.049l-0.069,2.534l7.107,0.195
					c1.156,0.032,1.747-0.451,1.774-1.449l0.028-1.038l1.768,0.049l-0.044,1.604c-0.057,2.075-1.197,3.082-3.421,3.02L37.154,250.363z"
					/>
				<path fill="#FFFFFF" d="M35.062,240.575l1.767,0.098l-0.121,2.179l-1.766-0.098L35.062,240.575z M39.537,240.823l12.362,0.685
					l-0.121,2.177L39.416,243L39.537,240.823z"/>
				<path fill="#FFFFFF" d="M45.809,238.612c-4.107-0.413-5.963-2.575-5.57-6.485c0.393-3.911,2.643-5.66,6.749-5.248
					c4.099,0.412,5.952,2.574,5.559,6.484C52.154,237.258,49.909,239.008,45.809,238.612z M50.798,233.188
					c0.247-2.464-1.111-3.846-4.076-4.143c-2.902-0.292-4.476,0.794-4.724,3.258c-0.248,2.464,1.079,3.841,3.981,4.133
					C48.944,236.734,50.55,235.651,50.798,233.188z"/>
				<path fill="#FFFFFF" d="M53.456,225.328l-12.212-2.042l0.243-1.454l1.623-0.124c-0.791-1.655-1.062-3.23-0.811-4.727
					c0.47-2.815,2.221-3.968,5.253-3.462l7.665,1.282l-0.36,2.152l-7.7-1.288c-1.814-0.303-2.873,0.449-3.175,2.255
					c-0.206,1.233,0.114,2.49,0.96,3.771l8.874,1.483L53.456,225.328z"/>
				<path fill="#FFFFFF" d="M51.889,211.754c-2.472-0.579-3.327-2.498-2.564-5.759c0.281-1.202,0.603-2.233,0.965-3.092l-1.137-0.266
					c-1.309-0.306-2.217,0.624-2.723,2.79c-0.291,1.24-0.396,2.556-0.317,3.946l-1.723-0.402c-0.078-1.391,0.027-2.707,0.317-3.947
					c0.838-3.582,2.543-5.073,5.115-4.471l8.198,1.917l-0.252,1.079L56.72,204.2c0.321,1.182,0.316,2.48-0.015,3.896
					C55.998,211.12,54.393,212.339,51.889,211.754z M51.047,206.398c-0.432,1.845,0.003,2.919,1.305,3.224
					c1.378,0.322,2.255-0.321,2.63-1.928c0.344-1.47,0.303-2.711-0.122-3.723l-2.848-0.666
					C51.663,204.111,51.34,205.142,51.047,206.398z"/>
				<path fill="#FFFFFF" d="M43.168,193.066l16.236,4.554l-0.589,2.101l-16.236-4.554L43.168,193.066z"/>
			</g>
			<g id="svg-text-excellence">
				<path fill="#FFFFFF" d="M71.663,299.007l2.188,8.045c2.442-0.665,3.245-2.537,2.407-5.617c-0.287-1.055-0.687-2.078-1.201-3.07
					l1.707-0.464c0.515,0.993,0.977,2.243,1.387,3.753c1.095,4.028-0.394,6.596-4.467,7.704c-3.892,1.058-6.356-0.321-7.394-4.136
					C65.295,301.564,67.086,299.493,71.663,299.007z M72.097,307.528l-1.664-6.123c-2.123,0.463-2.912,1.696-2.367,3.699
					C68.623,307.153,69.966,307.96,72.097,307.528z"/>
				<path fill="#FFFFFF" d="M76.167,293.667l0.493,2.487l-13.945-6.674l-0.493-2.487L76.167,293.667z M64.515,298.561l-0.493-2.487
					l10.347-11.487l0.493,2.487L64.515,298.561z"/>
				<path fill="#FFFFFF" d="M72.454,272.913c0.366,0.983,0.625,2.06,0.777,3.229c0.578,4.443-1.257,6.942-5.506,7.494
					c-3.937,0.512-6.195-1.453-6.772-5.897c-0.152-1.169-0.177-2.276-0.075-3.319l1.754-0.228c-0.102,1.043-0.087,2.072,0.045,3.085
					c0.411,3.157,2,4.556,4.768,4.196c3.079-0.4,4.414-2.18,4.003-5.337c-0.132-1.013-0.381-2.011-0.747-2.995L72.454,272.913z"/>
				<path fill="#FFFFFF" d="M66.424,261.141l0.526,8.32c2.526-0.16,3.688-1.833,3.487-5.018c-0.069-1.09-0.256-2.173-0.56-3.25
					l1.765-0.111c0.304,1.076,0.506,2.394,0.604,3.955c0.264,4.166-1.711,6.382-5.924,6.649c-4.025,0.254-6.162-1.592-6.412-5.538
					C59.672,262.367,61.843,260.698,66.424,261.141z M65.138,269.576l-0.4-6.331c-2.172,0.027-3.193,1.076-3.063,3.147
					C61.809,268.51,62.963,269.572,65.138,269.576z"/>
				<path fill="#FFFFFF" d="M55.066,255.791l16.861-0.236l0.03,2.182l-16.861,0.236L55.066,255.791z"/>
				<path fill="#FFFFFF" d="M55.114,249.792l16.856,0.461l-0.06,2.181l-16.856-0.461L55.114,249.792z"/>
				<path fill="#FFFFFF" d="M67.07,236.697l-0.531,8.32c2.526,0.162,3.891-1.35,4.094-4.536c0.07-1.09,0.021-2.188-0.144-3.294
					l1.765,0.113c0.166,1.105,0.199,2.439,0.1,4c-0.266,4.166-2.506,6.114-6.719,5.845c-4.025-0.257-5.911-2.358-5.659-6.304
					C60.217,237.059,62.582,235.678,67.07,236.697z M64.727,244.901l0.404-6.332c-2.158-0.248-3.304,0.664-3.436,2.735
					C61.56,243.422,62.57,244.622,64.727,244.901z"/>
				<path fill="#FFFFFF" d="M72.902,234.147l-12.269-1.671l0.199-1.46l1.619-0.173c-0.841-1.63-1.16-3.197-0.955-4.7
					c0.385-2.827,2.101-4.034,5.147-3.619l7.7,1.049l-0.295,2.161l-7.735-1.053c-1.823-0.249-2.858,0.535-3.105,2.35
					c-0.168,1.238,0.189,2.485,1.073,3.74l8.916,1.215L72.902,234.147z"/>
				<path fill="#FFFFFF" d="M76.455,211.294c0.024,1.048-0.084,2.15-0.323,3.305c-0.909,4.388-3.46,6.147-7.657,5.279
					c-3.887-0.805-5.377-3.401-4.468-7.79c0.239-1.155,0.578-2.208,1.016-3.161l1.732,0.359c-0.438,0.953-0.761,1.929-0.968,2.93
					c-0.646,3.118,0.398,4.96,3.131,5.525c3.042,0.629,4.884-0.614,5.53-3.732c0.207-1.001,0.299-2.025,0.275-3.074L76.455,211.294z"/>
				<path fill="#FFFFFF" d="M74.614,198.208l-2.232,8.033c2.439,0.677,4.086-0.521,4.94-3.597c0.292-1.052,0.472-2.137,0.537-3.253
					l1.704,0.474c-0.065,1.116-0.308,2.427-0.727,3.935c-1.118,4.022-3.709,5.468-7.777,4.338c-3.886-1.08-5.3-3.524-4.241-7.334
					C67.833,197.153,70.431,196.288,74.614,198.208z M70.632,205.755l1.698-6.112c-2.061-0.687-3.37-0.031-3.925,1.969
					C67.837,203.657,68.58,205.038,70.632,205.755z"/>
			</g>
		</g>
	
		<g id="svg-entrepreneurial-approach" class="slice">
			<g id="svg-bg-entrepreneurial-approach">
				<path fill="#DE8126" d="M255.943,146.103V10.289c-89.611,0-166.182,44.207-210.986,121.813l117.629,67.914
					C181.229,167.796,216.041,146.103,255.943,146.103z"/>
				<path fill="none" stroke="#FFFFFF" stroke-width="2.3" stroke-miterlimit="10" d="M255.943,146.103V10.289
					c-89.611,0-166.182,44.207-210.986,121.813l117.629,67.914C181.229,167.796,216.041,146.103,255.943,146.103z"/>
			</g>
			<g id="svg-text-entrepreneurial">
				<path fill="#FFFFFF" d="M97.287,115.855l-5.325,6.414c1.948,1.618,3.941,1.199,5.979-1.258c0.698-0.84,1.305-1.757,1.822-2.749
					l1.361,1.129c-0.517,0.992-1.274,2.09-2.273,3.294c-2.667,3.211-5.624,3.469-8.872,0.773c-3.103-2.576-3.392-5.385-0.865-8.427
					C91.533,112.116,94.257,112.391,97.287,115.855z M90.564,121.11l4.052-4.881c-1.599-1.47-3.061-1.407-4.387,0.189
					C88.874,118.052,88.985,119.616,90.564,121.11z"/>
				<path fill="#FFFFFF" d="M103.341,117.397l-9-8.503l1.012-1.072l1.416,0.802c0.266-1.814,0.919-3.274,1.961-4.375
					c1.96-2.075,4.058-2.056,6.292,0.055l5.649,5.336l-1.499,1.585l-5.674-5.361c-1.337-1.263-2.635-1.229-3.893,0.102
					c-0.858,0.908-1.293,2.13-1.306,3.666l6.54,6.179L103.341,117.397z"/>
				<path fill="#FFFFFF" d="M102.787,97.286l0.988-0.945l1.727,1.122l2.079-1.988l1.223,1.278l-1.832,1.752l4.916,5.138
					c0.799,0.835,1.559,0.907,2.281,0.218l0.75-0.718l1.223,1.278l-1.159,1.108c-1.5,1.435-3.018,1.348-4.556-0.259L102.787,97.286z"/>
				<path fill="#FFFFFF" d="M117.852,102.851l-8.238-9.243l1.101-0.98l1.342,0.92c0.109-1.508,0.732-2.769,1.871-3.784l1.208,1.355
					c-1.104,0.984-1.651,2.172-1.641,3.564l5.986,6.717L117.852,102.851z"/>
				<path fill="#FFFFFF" d="M127.498,87.462l-6.487,5.236c1.59,1.97,3.627,1.952,6.11-0.053c0.85-0.686,1.626-1.464,2.328-2.334
					l1.111,1.376c-0.702,0.87-1.662,1.796-2.88,2.779c-3.247,2.622-6.197,2.291-8.849-0.994c-2.533-3.138-2.262-5.948,0.815-8.432
					C122.596,82.659,125.212,83.467,127.498,87.462z M119.87,91.285l4.936-3.985c-1.277-1.756-2.723-1.983-4.338-0.68
					C118.816,87.953,118.617,89.508,119.87,91.285z"/>
				<path fill="#FFFFFF" d="M126.276,80.472c1.146-1.225,2.434-2.344,3.865-3.357c3.24-2.292,5.994-1.839,8.26,1.363
					c2.502,3.536,2.124,6.458-1.135,8.765c-0.81,0.572-1.705,0.966-2.689,1.181l2.93,4.139l-1.781,1.26L126.276,80.472z
					 M133.459,86.844c0.945-0.147,1.847-0.527,2.707-1.135c2.099-1.486,2.255-3.489,0.471-6.011c-1.558-2.201-3.38-2.563-5.465-1.087
					c-0.898,0.636-1.63,1.269-2.195,1.9L133.459,86.844z"/>
				<path fill="#FFFFFF" d="M144.064,82.606l-6.641-10.449l1.244-0.791l1.176,1.125c0.351-1.472,1.169-2.616,2.457-3.434l0.974,1.532
					c-1.247,0.793-1.979,1.877-2.194,3.253l4.826,7.594L144.064,82.606z"/>
				<path fill="#FFFFFF" d="M156.146,69.002l-7.304,4.021c1.221,2.218,3.229,2.556,6.024,1.017c0.958-0.526,1.858-1.157,2.702-1.89
					l0.853,1.549c-0.844,0.733-1.951,1.478-3.321,2.232c-3.657,2.013-6.504,1.17-8.54-2.527c-1.945-3.533-1.186-6.253,2.278-8.16
					C152.159,63.417,154.594,64.669,156.146,69.002z M147.966,71.432l5.558-3.06c-0.95-1.954-2.334-2.43-4.152-1.429
					C147.512,67.967,147.044,69.463,147.966,71.432z"/>
				<path fill="#FFFFFF" d="M161.217,72.515l-5.446-11.12l1.324-0.648l1.044,1.248c0.885-1.606,2.009-2.743,3.371-3.41
					c2.563-1.255,4.521-0.502,5.873,2.258l3.417,6.979l-1.959,0.959l-3.433-7.01c-0.81-1.652-2.036-2.075-3.681-1.27
					c-1.123,0.549-1.959,1.541-2.509,2.974l3.957,8.081L161.217,72.515z"/>
				<path fill="#FFFFFF" d="M180.39,57.753l-7.704,3.185c0.967,2.339,2.926,2.899,5.875,1.68c1.01-0.417,1.975-0.943,2.895-1.58
					l0.676,1.635c-0.92,0.635-2.103,1.252-3.548,1.85c-3.857,1.595-6.593,0.442-8.206-3.459c-1.541-3.727-0.484-6.345,3.17-7.857
					C177.049,51.76,179.329,53.274,180.39,57.753z M171.992,59.261l5.862-2.424c-0.727-2.047-2.05-2.674-3.968-1.881
					C171.925,55.767,171.294,57.201,171.992,59.261z"/>
				<path fill="#FFFFFF" d="M191.128,46.782l3.991,11.721l-1.418,0.482l-0.866-1.374c-1.082,1.481-2.341,2.467-3.777,2.956
					c-2.694,0.917-4.536-0.08-5.527-2.989l-2.504-7.356l2.065-0.703l2.516,7.389c0.593,1.742,1.752,2.318,3.479,1.73
					c1.183-0.403,2.142-1.281,2.876-2.636l-2.899-8.517L191.128,46.782z"/>
				<path fill="#FFFFFF" d="M197.844,57.737l-3.389-11.91l1.417-0.403l0.807,1.414c0.755-1.311,1.866-2.174,3.333-2.591l0.497,1.746
					c-1.422,0.404-2.432,1.235-3.03,2.492l2.462,8.654L197.844,57.737z"/>
				<path fill="#FFFFFF" d="M202.945,38.895l0.432,1.715l-2.116,0.532l-0.432-1.715L202.945,38.895z M204.038,43.24l3.021,12.007
					l-2.116,0.532l-3.021-12.007L204.038,43.24z"/>
				<path fill="#FFFFFF" d="M208.475,50.872c-0.511-2.487,0.874-4.068,4.154-4.742c1.209-0.249,2.279-0.388,3.212-0.419l-0.235-1.144
					c-0.271-1.316-1.496-1.751-3.674-1.303c-1.248,0.256-2.486,0.712-3.717,1.366l-0.355-1.733c1.229-0.654,2.468-1.11,3.716-1.366
					c3.604-0.741,5.671,0.182,6.203,2.77l1.695,8.247l-1.086,0.223l-1.03-0.678c-0.938,0.785-2.119,1.326-3.544,1.618
					C210.772,54.336,208.992,53.39,208.475,50.872z M212.985,47.862c-1.856,0.381-2.649,1.227-2.38,2.536
					c0.285,1.386,1.236,1.913,2.854,1.581c1.478-0.304,2.588-0.86,3.328-1.671l-0.589-2.864
					C215.318,47.463,214.248,47.603,212.985,47.862z"/>
				<path fill="#FFFFFF" d="M221.802,35.118l2.669,16.65l-2.154,0.345l-2.669-16.65L221.802,35.118z"/>
			</g>
			<g id="svg-text-approach">
				<path fill="#FFFFFF" d="M121.518,122.194c-1.759-1.831-1.431-3.906,0.984-6.227c0.891-0.855,1.722-1.544,2.494-2.068l-0.809-0.842
					c-0.931-0.969-2.199-0.684-3.803,0.857c-0.919,0.882-1.724,1.929-2.415,3.138l-1.226-1.276c0.691-1.209,1.497-2.255,2.415-3.137
					c2.653-2.549,4.895-2.872,6.725-0.966l5.833,6.071l-0.799,0.769l-1.234-0.025c-0.373,1.166-1.084,2.252-2.133,3.259
					C125.31,123.9,123.3,124.048,121.518,122.194z M123.728,117.244c-1.366,1.313-1.586,2.45-0.661,3.414
					c0.98,1.02,2.066,0.958,3.257-0.185c1.088-1.045,1.729-2.108,1.924-3.189l-2.026-2.109
					C125.488,115.661,124.657,116.35,123.728,117.244z"/>
				<path fill="#FFFFFF" d="M126.36,106.601c1.048-1.31,2.245-2.525,3.594-3.646c3.053-2.538,5.833-2.298,8.341,0.719
					c2.769,3.332,2.617,6.274-0.454,8.826c-0.762,0.633-1.625,1.096-2.59,1.385l3.241,3.9l-1.678,1.395L126.36,106.601z
					 M134.016,112.398c0.93-0.222,1.8-0.668,2.61-1.343c1.977-1.642,1.978-3.653,0.003-6.028c-1.723-2.073-3.568-2.294-5.533-0.661
					c-0.847,0.703-1.526,1.392-2.041,2.064L134.016,112.398z"/>
				<path fill="#FFFFFF" d="M137.475,97.547c1.141-1.229,2.424-2.355,3.851-3.374c3.23-2.307,5.986-1.865,8.267,1.327
					c2.518,3.524,2.151,6.447-1.098,8.769c-0.806,0.576-1.701,0.974-2.684,1.194l2.947,4.125l-1.775,1.268L137.475,97.547z
					 M144.686,103.889c0.944-0.153,1.844-0.536,2.702-1.148c2.092-1.494,2.24-3.498,0.444-6.012c-1.568-2.193-3.391-2.548-5.47-1.063
					c-0.896,0.64-1.624,1.276-2.186,1.91L144.686,103.889z"/>
				<path fill="#FFFFFF" d="M155.525,99.461l-6.614-10.468l1.247-0.787l1.173,1.128c0.354-1.47,1.176-2.612,2.465-3.427l0.97,1.535
					c-1.249,0.79-1.983,1.872-2.202,3.247l4.806,7.606L155.525,99.461z"/>
				<path fill="#FFFFFF" d="M158.328,90.339c-2.005-3.607-1.29-6.366,2.146-8.275c3.436-1.909,6.156-1.06,8.161,2.548
					c2,3.6,1.283,6.355-2.152,8.265C163.061,94.778,160.343,93.932,158.328,90.339z M165.63,91.34c2.165-1.203,2.523-3.107,1.076-5.71
					c-1.417-2.55-3.208-3.223-5.372-2.021c-2.165,1.203-2.539,3.08-1.122,5.629C161.659,91.842,163.465,92.542,165.63,91.34z"/>
				<path fill="#FFFFFF" d="M171.648,85.708c-1.073-2.301-0.092-4.159,2.943-5.574c1.118-0.521,2.128-0.906,3.028-1.152l-0.493-1.058
					c-0.569-1.218-1.861-1.357-3.877-0.417c-1.155,0.538-2.254,1.268-3.3,2.188l-0.747-1.603c1.045-0.921,2.145-1.65,3.299-2.188
					c3.334-1.556,5.56-1.135,6.676,1.258l3.558,7.631l-1.004,0.468l-1.16-0.421c-0.73,0.983-1.754,1.781-3.072,2.395
					C174.685,88.547,172.734,88.038,171.648,85.708z M175.339,81.736c-1.717,0.801-2.293,1.807-1.729,3.018
					c0.598,1.282,1.645,1.575,3.141,0.876c1.368-0.638,2.319-1.436,2.851-2.396l-1.235-2.65
					C177.517,80.809,176.508,81.191,175.339,81.736z"/>
				<path fill="#FFFFFF" d="M194.216,79.877c-0.868,0.589-1.852,1.097-2.951,1.523c-4.178,1.62-7.042,0.433-8.589-3.562
					c-1.436-3.701-0.064-6.363,4.113-7.982c1.1-0.427,2.168-0.714,3.207-0.864l0.64,1.649c-1.038,0.15-2.034,0.409-2.987,0.779
					c-2.968,1.151-3.948,3.028-2.939,5.629c1.123,2.895,3.167,3.768,6.136,2.616c0.953-0.369,1.863-0.848,2.73-1.438L194.216,79.877z"
					/>
				<path fill="#FFFFFF" d="M196.367,79.494L191.37,63.39l2.083-0.646l1.727,5.563c0.966-1.238,2.173-2.083,3.622-2.531
					c2.726-0.846,4.544,0.199,5.455,3.135l2.303,7.421l-2.083,0.647l-2.314-7.455c-0.545-1.757-1.692-2.364-3.441-1.821
					c-1.194,0.37-2.173,1.221-2.937,2.553l2.666,8.593L196.367,79.494z"/>
			</g>
		</g>
	</g>
</svg>
